<svg width="501" height="54" viewBox="0 0 501 54" fill="none" xmlns="http://www.w3.org/2000/svg">
<rect x="256" y="32.3091" width="245" height="21.0804" fill="#919191"/>
<rect x="256" y="32.3091" width="131.32" height="21.0811" fill="#FF8A00"/>
<path d="M398.545 41.5487C398.846 41.4393 399.124 41.3596 399.379 41.3094C399.634 41.2548 399.878 41.2274 400.11 41.2274C400.908 41.2274 401.571 41.5054 402.1 42.0614C402.633 42.6128 402.899 43.2987 402.899 44.119C402.899 44.9895 402.605 45.7072 402.018 46.2723C401.43 46.8374 400.678 47.12 399.762 47.12C398.996 47.12 398.354 47.0175 397.834 46.8124C397.319 46.6027 397.062 46.3498 397.062 46.0536C397.062 45.9351 397.109 45.8303 397.205 45.7391C397.301 45.6434 397.412 45.5956 397.54 45.5956C397.59 45.5956 397.857 45.6844 398.34 45.8622C398.827 46.0354 399.279 46.1219 399.693 46.1219C400.304 46.1219 400.799 45.9397 401.177 45.5751C401.56 45.2059 401.751 44.732 401.751 44.1532C401.751 43.5881 401.571 43.1187 401.211 42.745C400.851 42.3667 400.397 42.1776 399.851 42.1776C399.44 42.1776 399.037 42.2802 398.641 42.4852C398.249 42.6903 398.012 42.7928 397.93 42.7928C397.793 42.7928 397.695 42.7427 397.636 42.6425C397.581 42.5422 397.554 42.3599 397.554 42.0956V38.6913C397.554 38.5409 397.599 38.4338 397.69 38.37C397.786 38.3016 397.95 38.2675 398.183 38.2675H401.642C401.86 38.2675 402.024 38.313 402.134 38.4042C402.243 38.4908 402.298 38.6229 402.298 38.8007C402.298 38.9693 402.241 39.1014 402.127 39.1971C402.013 39.2883 401.851 39.3339 401.642 39.3339H398.545V41.5487ZM408.491 39.0262C407.967 39.0262 407.559 39.3361 407.268 39.9559C406.976 40.5757 406.83 41.4507 406.83 42.5809C406.83 43.7157 406.976 44.5953 407.268 45.2196C407.559 45.8394 407.967 46.1493 408.491 46.1493C409.02 46.1493 409.43 45.8394 409.722 45.2196C410.013 44.5953 410.159 43.7157 410.159 42.5809C410.159 41.4507 410.013 40.5757 409.722 39.9559C409.43 39.3361 409.02 39.0262 408.491 39.0262ZM408.491 47.12C407.634 47.12 406.953 46.7167 406.447 45.91C405.946 45.0988 405.695 43.9891 405.695 42.5809C405.695 41.1773 405.946 40.0721 406.447 39.2655C406.953 38.4543 407.634 38.0487 408.491 38.0487C409.348 38.0487 410.029 38.4543 410.535 39.2655C411.041 40.0767 411.294 41.1818 411.294 42.5809C411.294 43.98 411.041 45.0874 410.535 45.9032C410.029 46.7144 409.348 47.12 408.491 47.12ZM422.382 46.8944H422.061C421.896 46.8944 421.771 46.8534 421.685 46.7714C421.603 46.6893 421.562 46.5663 421.562 46.4022C421.562 46.2199 421.609 46.0969 421.705 46.0331C421.805 45.9647 422.031 45.9305 422.382 45.9305H422.819V39.7714H422.382C422.04 39.7714 421.817 39.7372 421.712 39.6688C421.612 39.5959 421.562 39.466 421.562 39.2792C421.562 39.1106 421.603 38.9875 421.685 38.91C421.771 38.828 421.901 38.787 422.074 38.787H422.382H428.028C428.183 38.787 428.299 38.8348 428.377 38.9305C428.459 39.0217 428.5 39.1561 428.5 39.3339V40.9471C428.5 41.1841 428.466 41.3482 428.397 41.4393C428.329 41.5305 428.206 41.576 428.028 41.576C427.841 41.576 427.712 41.5259 427.639 41.4257C427.57 41.3254 427.536 41.0998 427.536 40.7489V39.7714H423.899V42.0751H425.69V41.7128C425.69 41.4667 425.722 41.2958 425.786 41.2001C425.854 41.1044 425.971 41.0565 426.135 41.0565C426.294 41.0565 426.404 41.1089 426.463 41.2137C426.527 41.314 426.559 41.5328 426.559 41.87V43.1415C426.559 43.4833 426.527 43.702 426.463 43.7977C426.399 43.8934 426.285 43.9413 426.121 43.9413C425.957 43.9413 425.843 43.8866 425.779 43.7772C425.72 43.6678 425.69 43.4559 425.69 43.1415V42.9022H423.899V45.9305H427.536V44.8231C427.536 44.4722 427.57 44.2466 427.639 44.1464C427.712 44.0461 427.841 43.996 428.028 43.996C428.201 43.996 428.322 44.0438 428.391 44.1395C428.464 44.2307 428.5 44.4061 428.5 44.6659V46.3885C428.5 46.5526 428.459 46.6779 428.377 46.7645C428.295 46.8511 428.179 46.8944 428.028 46.8944H422.382ZM433.258 38.9305H432.096C431.654 38.9305 431.376 38.8964 431.262 38.828C431.152 38.7551 431.098 38.6252 431.098 38.4384C431.098 38.2743 431.143 38.1512 431.234 38.0692C431.33 37.9872 431.467 37.9462 431.645 37.9462H433.9C434.023 37.9462 434.119 37.9712 434.188 38.0214C434.256 38.0715 434.29 38.1399 434.29 38.2264V45.9305H436.437C436.61 45.9305 436.735 45.9693 436.812 46.0468C436.895 46.1197 436.936 46.2382 436.936 46.4022C436.936 46.5891 436.897 46.719 436.819 46.7919C436.742 46.8602 436.596 46.8944 436.382 46.8944H431.337C431.159 46.8944 431.022 46.8534 430.927 46.7714C430.836 46.6893 430.79 46.5663 430.79 46.4022C430.79 46.2427 430.838 46.1242 430.934 46.0468C431.029 45.9693 431.173 45.9305 431.364 45.9305H433.258V38.9305ZM439.813 44.037C439.85 44.6932 440.071 45.2014 440.477 45.5614C440.887 45.9169 441.445 46.0946 442.151 46.0946C442.685 46.0946 443.266 45.9533 443.895 45.6708C444.523 45.3837 444.904 45.2401 445.036 45.2401C445.173 45.2401 445.287 45.2834 445.378 45.37C445.469 45.4566 445.515 45.5637 445.515 45.6913C445.515 45.8234 445.467 45.9442 445.371 46.0536C445.275 46.163 445.123 46.2701 444.913 46.3749C444.457 46.5982 443.986 46.7691 443.498 46.8876C443.015 47.0061 442.534 47.0653 442.056 47.0653C441.017 47.0653 440.185 46.7668 439.561 46.1698C438.936 45.5682 438.624 44.773 438.624 43.7841C438.624 42.7769 438.954 41.9611 439.615 41.3368C440.276 40.7124 441.137 40.4003 442.199 40.4003C443.161 40.4003 443.958 40.6919 444.592 41.2753C445.225 41.8586 445.542 42.565 445.542 43.3944C445.542 43.6496 445.487 43.8205 445.378 43.9071C445.273 43.9937 444.984 44.037 444.51 44.037H444.407H439.813ZM439.848 43.1415H444.298C444.229 42.5992 444.002 42.1639 443.614 41.8358C443.231 41.5031 442.76 41.3368 442.199 41.3368C441.593 41.3368 441.083 41.4963 440.668 41.8153C440.253 42.1343 439.98 42.5764 439.848 43.1415ZM453.068 43.0868C453.068 42.4442 453.009 42.0113 452.891 41.788C452.777 41.5601 452.578 41.4462 452.296 41.4462C451.959 41.4462 451.69 41.592 451.489 41.8837C451.293 42.1753 451.195 42.5764 451.195 43.0868V45.9305H451.318C451.596 45.9305 451.781 45.9647 451.872 46.0331C451.968 46.0969 452.016 46.2199 452.016 46.4022C452.016 46.5663 451.977 46.6893 451.899 46.7714C451.822 46.8534 451.703 46.8944 451.544 46.8944H450.676C450.48 46.8944 450.345 46.8488 450.272 46.7577C450.204 46.6665 450.17 46.4706 450.17 46.1698V45.9716V43.0868V42.5536C450.17 42.2118 450.092 41.9429 449.938 41.7469C449.783 41.5464 449.571 41.4462 449.302 41.4462C449.097 41.4462 448.908 41.5077 448.734 41.6307C448.566 41.7492 448.42 41.927 448.297 42.1639V45.9305H448.55C448.823 45.9305 449.008 45.9647 449.104 46.0331C449.199 46.1014 449.247 46.2245 449.247 46.4022C449.247 46.5891 449.208 46.719 449.131 46.7919C449.053 46.8602 448.905 46.8944 448.687 46.8944H446.868C446.69 46.8944 446.558 46.8557 446.472 46.7782C446.39 46.6962 446.349 46.5708 446.349 46.4022C446.349 46.2199 446.401 46.0969 446.506 46.0331C446.615 45.9647 446.825 45.9305 447.135 45.9305H447.271V41.5487H447.148C446.829 41.5487 446.611 41.5122 446.492 41.4393C446.378 41.3664 446.321 41.2388 446.321 41.0565C446.321 40.897 446.367 40.7785 446.458 40.701C446.549 40.619 446.686 40.578 446.868 40.578H447.914C448.064 40.578 448.162 40.6053 448.208 40.66C448.258 40.7102 448.288 40.8195 448.297 40.9882C448.484 40.7876 448.684 40.6395 448.898 40.5438C449.113 40.4481 449.354 40.4003 449.623 40.4003C449.942 40.4003 450.204 40.4709 450.409 40.6122C450.619 40.7489 450.774 40.9585 450.874 41.2411C451.065 40.954 451.286 40.7421 451.537 40.6053C451.788 40.4686 452.075 40.4003 452.398 40.4003C452.986 40.4003 453.415 40.5917 453.684 40.9745C453.957 41.3573 454.094 41.9771 454.094 42.8339V45.9305H454.203C454.486 45.9305 454.675 45.9647 454.771 46.0331C454.866 46.1014 454.914 46.2245 454.914 46.4022C454.914 46.5663 454.873 46.6893 454.791 46.7714C454.709 46.8534 454.588 46.8944 454.429 46.8944H453.602C453.419 46.8944 453.285 46.8397 453.198 46.7303C453.112 46.621 453.068 46.4478 453.068 46.2108V43.0868ZM456.63 44.037C456.666 44.6932 456.887 45.2014 457.293 45.5614C457.703 45.9169 458.261 46.0946 458.968 46.0946C459.501 46.0946 460.082 45.9533 460.711 45.6708C461.34 45.3837 461.72 45.2401 461.853 45.2401C461.989 45.2401 462.103 45.2834 462.194 45.37C462.285 45.4566 462.331 45.5637 462.331 45.6913C462.331 45.8234 462.283 45.9442 462.188 46.0536C462.092 46.163 461.939 46.2701 461.729 46.3749C461.274 46.5982 460.802 46.7691 460.314 46.8876C459.831 47.0061 459.351 47.0653 458.872 47.0653C457.833 47.0653 457.001 46.7668 456.377 46.1698C455.753 45.5682 455.44 44.773 455.44 43.7841C455.44 42.7769 455.771 41.9611 456.432 41.3368C457.092 40.7124 457.954 40.4003 459.016 40.4003C459.977 40.4003 460.775 40.6919 461.408 41.2753C462.042 41.8586 462.358 42.565 462.358 43.3944C462.358 43.6496 462.304 43.8205 462.194 43.9071C462.09 43.9937 461.8 44.037 461.326 44.037H461.224H456.63ZM456.664 43.1415H461.114C461.046 42.5992 460.818 42.1639 460.431 41.8358C460.048 41.5031 459.576 41.3368 459.016 41.3368C458.41 41.3368 457.899 41.4963 457.484 41.8153C457.07 42.1343 456.796 42.5764 456.664 43.1415ZM464.806 45.9305V41.5487H464.676C464.366 41.5487 464.152 41.5122 464.033 41.4393C463.919 41.3664 463.862 41.2388 463.862 41.0565C463.862 40.8879 463.91 40.7671 464.006 40.6942C464.102 40.6167 464.257 40.578 464.471 40.578H464.792H465.448C465.571 40.578 465.667 40.6031 465.735 40.6532C465.804 40.7033 465.838 40.7717 465.838 40.8583V41.3231C466.171 41.0132 466.499 40.7854 466.822 40.6395C467.15 40.4891 467.49 40.4139 467.841 40.4139C468.529 40.4139 469.069 40.6281 469.461 41.0565C469.857 41.4849 470.056 42.0774 470.056 42.8339V45.9305H470.377C470.605 45.9305 470.769 45.9693 470.869 46.0468C470.969 46.1197 471.02 46.2382 471.02 46.4022C471.02 46.58 470.965 46.7076 470.855 46.785C470.751 46.858 470.562 46.8944 470.288 46.8944H468.777C468.486 46.8944 468.299 46.8602 468.217 46.7919C468.135 46.7235 468.094 46.5936 468.094 46.4022C468.094 46.2245 468.142 46.1014 468.237 46.0331C468.333 45.9647 468.513 45.9305 468.777 45.9305H469.017V43.0868C469.017 42.5536 468.896 42.148 468.654 41.87C468.413 41.5874 468.062 41.4462 467.602 41.4462C467.137 41.4462 466.727 41.6034 466.371 41.9178C466.016 42.2323 465.838 42.6219 465.838 43.0868V45.9305H466.077C466.351 45.9305 466.535 45.9647 466.631 46.0331C466.727 46.1014 466.774 46.2245 466.774 46.4022C466.774 46.5936 466.733 46.7235 466.651 46.7919C466.569 46.8602 466.369 46.8944 466.05 46.8944H464.806H464.437C464.25 46.8944 464.108 46.8557 464.013 46.7782C463.922 46.6962 463.876 46.5708 463.876 46.4022C463.876 46.2199 463.928 46.0969 464.033 46.0331C464.143 45.9647 464.352 45.9305 464.662 45.9305H464.806ZM477.623 40.9608C477.846 40.9608 478.008 40.9996 478.108 41.077C478.213 41.1545 478.266 41.2775 478.266 41.4462C478.266 41.6057 478.218 41.7264 478.122 41.8085C478.026 41.8859 477.883 41.9247 477.691 41.9247H474.923V44.2079C474.923 44.9553 475.019 45.4475 475.21 45.6844C475.406 45.9214 475.739 46.0399 476.208 46.0399C476.623 46.0399 477.119 45.9191 477.698 45.6776C478.277 45.4361 478.635 45.3153 478.771 45.3153C478.899 45.3153 479.006 45.3609 479.093 45.452C479.184 45.5432 479.229 45.6548 479.229 45.787C479.229 45.9374 479.173 46.0695 479.059 46.1835C478.949 46.2928 478.76 46.3999 478.491 46.5048C478.045 46.6825 477.641 46.8124 477.281 46.8944C476.926 46.9764 476.591 47.0175 476.276 47.0175C475.743 47.0175 475.294 46.9331 474.93 46.7645C474.57 46.5913 474.301 46.3361 474.123 45.9989C474.032 45.8394 473.966 45.6503 473.925 45.4315C473.888 45.2128 473.87 44.8755 473.87 44.4198V44.2079V41.9247H472.708C472.517 41.9247 472.378 41.8882 472.291 41.8153C472.204 41.7378 472.161 41.6148 472.161 41.4462C472.161 41.2593 472.22 41.1317 472.339 41.0634C472.457 40.995 472.71 40.9608 473.098 40.9608H473.87V39.5594V39.1971C473.87 39.0012 473.911 38.8576 473.993 38.7665C474.08 38.6708 474.212 38.6229 474.39 38.6229C474.59 38.6229 474.729 38.6799 474.807 38.7938C474.884 38.9078 474.923 39.1675 474.923 39.5731V40.9608H477.623ZM481.185 46.4022V45.1854C481.185 44.9849 481.221 44.8413 481.294 44.7548C481.371 44.6682 481.494 44.6249 481.663 44.6249C481.85 44.6249 481.998 44.7525 482.107 45.0077C482.18 45.1626 482.246 45.2788 482.306 45.3563C482.497 45.6024 482.78 45.8007 483.153 45.951C483.527 46.0969 483.939 46.1698 484.391 46.1698C484.874 46.1698 485.261 46.0718 485.553 45.8759C485.844 45.6799 485.99 45.4224 485.99 45.1034C485.99 44.7798 485.872 44.5497 485.635 44.413C485.402 44.2762 485.001 44.2079 484.432 44.2079H484.056C483.126 44.2079 482.417 44.0461 481.93 43.7225C481.442 43.399 481.198 42.9296 481.198 42.3143C481.198 41.7128 481.435 41.2456 481.909 40.913C482.388 40.5803 483.058 40.4139 483.919 40.4139C484.27 40.4139 484.628 40.4641 484.992 40.5643C485.357 40.66 485.548 40.7079 485.566 40.7079C485.617 40.7079 485.712 40.6646 485.854 40.578C485.995 40.4869 486.134 40.4413 486.271 40.4413C486.425 40.4413 486.539 40.4983 486.612 40.6122C486.69 40.7261 486.729 40.897 486.729 41.1249V41.9247C486.729 42.1662 486.692 42.3417 486.619 42.451C486.546 42.5559 486.43 42.6083 486.271 42.6083C486.134 42.6083 485.965 42.4921 485.765 42.2596C485.623 42.1001 485.507 41.9794 485.416 41.8973C485.174 41.674 484.917 41.5145 484.644 41.4188C484.37 41.3186 484.049 41.2684 483.68 41.2684C483.251 41.2684 482.905 41.3641 482.641 41.5555C482.381 41.7424 482.251 41.9816 482.251 42.2733C482.251 42.5604 482.385 42.7655 482.654 42.8885C482.923 43.0116 483.502 43.0822 484.391 43.1005C485.339 43.1233 486.031 43.2896 486.469 43.5995C486.906 43.9048 487.125 44.3788 487.125 45.0214C487.125 45.6366 486.883 46.1288 486.4 46.4979C485.917 46.8671 485.266 47.0516 484.445 47.0516C484.186 47.0516 483.896 47.0266 483.577 46.9764C483.258 46.9309 482.857 46.8511 482.374 46.7372C482.215 46.842 482.078 46.9195 481.964 46.9696C481.85 47.0243 481.754 47.0516 481.677 47.0516C481.517 47.0516 481.394 46.9969 481.308 46.8876C481.226 46.7736 481.185 46.6119 481.185 46.4022Z" fill="white"/>
<path d="M266.836 39.7714V42.9432H268.115C268.83 42.9432 269.366 42.8111 269.721 42.5468C270.077 42.2824 270.254 41.8837 270.254 41.3505C270.254 40.8264 270.074 40.4322 269.714 40.1678C269.359 39.9035 268.826 39.7714 268.115 39.7714H266.836ZM268.265 45.9305C268.488 45.9305 268.65 45.9693 268.75 46.0468C268.851 46.1197 268.901 46.2382 268.901 46.4022C268.901 46.5845 268.853 46.7121 268.757 46.785C268.662 46.858 268.479 46.8944 268.21 46.8944H264.868C264.713 46.8944 264.594 46.8534 264.512 46.7714C264.43 46.6848 264.389 46.5617 264.389 46.4022C264.389 46.2427 264.428 46.1242 264.505 46.0468C264.587 45.9693 264.713 45.9305 264.881 45.9305H265.763V39.7714H265.285C264.884 39.7714 264.633 39.7372 264.533 39.6688C264.437 39.5959 264.389 39.466 264.389 39.2792C264.389 39.1197 264.43 38.9989 264.512 38.9169C264.594 38.8303 264.713 38.787 264.868 38.787H268.033C269.14 38.787 269.981 39.0012 270.555 39.4296C271.129 39.858 271.417 40.4891 271.417 41.3231C271.417 42.1571 271.132 42.786 270.562 43.2098C269.992 43.6337 269.149 43.8456 268.033 43.8456H266.836V45.9305H268.265ZM276.393 46.1083C277.095 46.1083 277.669 45.8872 278.116 45.4452C278.567 44.9986 278.792 44.4312 278.792 43.743C278.792 43.0549 278.567 42.4875 278.116 42.0409C277.665 41.5897 277.09 41.3641 276.393 41.3641C275.696 41.3641 275.122 41.5897 274.67 42.0409C274.224 42.4875 274 43.0549 274 43.743C274 44.4358 274.224 45.0031 274.67 45.4452C275.117 45.8872 275.691 46.1083 276.393 46.1083ZM279.982 43.743C279.982 44.7183 279.649 45.5158 278.984 46.1356C278.319 46.7554 277.455 47.0653 276.393 47.0653C275.336 47.0653 274.474 46.7554 273.809 46.1356C273.144 45.5158 272.811 44.7183 272.811 43.743C272.811 42.7678 273.144 41.9725 273.809 41.3573C274.474 40.7375 275.336 40.4276 276.393 40.4276C277.45 40.4276 278.312 40.7375 278.977 41.3573C279.647 41.9771 279.982 42.7723 279.982 43.743ZM282.491 44.037C282.527 44.6932 282.748 45.2014 283.154 45.5614C283.564 45.9169 284.122 46.0946 284.829 46.0946C285.362 46.0946 285.943 45.9533 286.572 45.6708C287.201 45.3837 287.581 45.2401 287.713 45.2401C287.85 45.2401 287.964 45.2834 288.055 45.37C288.146 45.4566 288.192 45.5637 288.192 45.6913C288.192 45.8234 288.144 45.9442 288.048 46.0536C287.953 46.163 287.8 46.2701 287.59 46.3749C287.135 46.5982 286.663 46.7691 286.175 46.8876C285.692 47.0061 285.211 47.0653 284.733 47.0653C283.694 47.0653 282.862 46.7668 282.238 46.1698C281.613 45.5682 281.301 44.773 281.301 43.7841C281.301 42.7769 281.632 41.9611 282.292 41.3368C282.953 40.7124 283.815 40.4003 284.876 40.4003C285.838 40.4003 286.636 40.6919 287.269 41.2753C287.903 41.8586 288.219 42.565 288.219 43.3944C288.219 43.6496 288.165 43.8205 288.055 43.9071C287.95 43.9937 287.661 44.037 287.187 44.037H287.084H282.491ZM282.525 43.1415H286.975C286.907 42.5992 286.679 42.1639 286.292 41.8358C285.909 41.5031 285.437 41.3368 284.876 41.3368C284.27 41.3368 283.76 41.4963 283.345 41.8153C282.931 42.1343 282.657 42.5764 282.525 43.1415ZM295.076 40.9608C295.299 40.9608 295.461 40.9996 295.561 41.077C295.666 41.1545 295.718 41.2775 295.718 41.4462C295.718 41.6057 295.67 41.7264 295.575 41.8085C295.479 41.8859 295.335 41.9247 295.144 41.9247H292.375V44.2079C292.375 44.9553 292.471 45.4475 292.663 45.6844C292.859 45.9214 293.191 46.0399 293.661 46.0399C294.075 46.0399 294.572 45.9191 295.151 45.6776C295.73 45.4361 296.087 45.3153 296.224 45.3153C296.352 45.3153 296.459 45.3609 296.545 45.452C296.637 45.5432 296.682 45.6548 296.682 45.787C296.682 45.9374 296.625 46.0695 296.511 46.1835C296.402 46.2928 296.213 46.3999 295.944 46.5048C295.497 46.6825 295.094 46.8124 294.734 46.8944C294.378 46.9764 294.043 47.0175 293.729 47.0175C293.196 47.0175 292.747 46.9331 292.382 46.7645C292.022 46.5913 291.753 46.3361 291.576 45.9989C291.485 45.8394 291.418 45.6503 291.377 45.4315C291.341 45.2128 291.323 44.8755 291.323 44.4198V44.2079V41.9247H290.161C289.969 41.9247 289.83 41.8882 289.744 41.8153C289.657 41.7378 289.614 41.6148 289.614 41.4462C289.614 41.2593 289.673 41.1317 289.792 41.0634C289.91 40.995 290.163 40.9608 290.55 40.9608H291.323V39.5594V39.1971C291.323 39.0012 291.364 38.8576 291.446 38.7665C291.532 38.6708 291.665 38.6229 291.842 38.6229C292.043 38.6229 292.182 38.6799 292.259 38.7938C292.337 38.9078 292.375 39.1675 292.375 39.5731V40.9608H295.076ZM300.948 45.9305H303.217C303.395 45.9305 303.525 45.9693 303.607 46.0468C303.694 46.1197 303.737 46.2382 303.737 46.4022C303.737 46.5891 303.696 46.719 303.614 46.7919C303.536 46.8602 303.39 46.8944 303.176 46.8944H298.706C298.528 46.8944 298.393 46.8534 298.302 46.7714C298.211 46.6893 298.166 46.5663 298.166 46.4022C298.166 46.2427 298.211 46.1242 298.302 46.0468C298.398 45.9693 298.544 45.9305 298.74 45.9305H299.929V41.5487H299.464C299.022 41.5487 298.747 41.5145 298.637 41.4462C298.528 41.3733 298.473 41.2434 298.473 41.0565C298.473 40.897 298.516 40.7785 298.603 40.701C298.694 40.619 298.831 40.578 299.013 40.578H300.572C300.695 40.578 300.788 40.6031 300.852 40.6532C300.916 40.6988 300.948 40.7671 300.948 40.8583V42.0204C301.381 41.4781 301.832 41.0747 302.301 40.8104C302.771 40.5461 303.277 40.4139 303.819 40.4139C304.224 40.4139 304.553 40.496 304.803 40.66C305.054 40.8241 305.179 41.036 305.179 41.2958C305.179 41.4644 305.115 41.6148 304.988 41.7469C304.865 41.8746 304.728 41.9384 304.578 41.9384C304.473 41.9384 304.295 41.87 304.044 41.7333C303.798 41.592 303.577 41.5214 303.381 41.5214C303.026 41.5214 302.65 41.649 302.253 41.9042C301.861 42.1548 301.426 42.5536 300.948 43.1005V45.9305ZM309.397 38.6093C309.397 38.1171 309.44 37.8072 309.527 37.6796C309.618 37.552 309.809 37.4882 310.101 37.4882C310.384 37.4882 310.57 37.5428 310.662 37.6522C310.753 37.757 310.798 38.01 310.798 38.411C310.798 38.8029 310.755 39.0468 310.668 39.1425C310.586 39.2336 310.397 39.2792 310.101 39.2792C309.809 39.2792 309.618 39.2359 309.527 39.1493C309.44 39.0627 309.397 38.8827 309.397 38.6093ZM310.662 45.9305H312.856C313.034 45.9305 313.164 45.9693 313.246 46.0468C313.332 46.1197 313.375 46.2382 313.375 46.4022C313.375 46.5891 313.334 46.719 313.252 46.7919C313.175 46.8602 313.029 46.8944 312.815 46.8944H307.51C307.328 46.8944 307.191 46.8534 307.1 46.7714C307.009 46.6893 306.963 46.5663 306.963 46.4022C306.963 46.2427 307.011 46.1242 307.107 46.0468C307.203 45.9693 307.346 45.9305 307.538 45.9305H309.623V41.5487H308.29C308.103 41.5487 307.959 41.5077 307.859 41.4257C307.763 41.3391 307.715 41.216 307.715 41.0565C307.715 40.897 307.761 40.7785 307.852 40.701C307.943 40.619 308.08 40.578 308.262 40.578H310.265C310.388 40.578 310.484 40.6031 310.552 40.6532C310.625 40.7033 310.662 40.7717 310.662 40.8583V45.9305ZM316.124 44.037C316.16 44.6932 316.381 45.2014 316.787 45.5614C317.197 45.9169 317.755 46.0946 318.461 46.0946C318.995 46.0946 319.576 45.9533 320.205 45.6708C320.833 45.3837 321.214 45.2401 321.346 45.2401C321.483 45.2401 321.597 45.2834 321.688 45.37C321.779 45.4566 321.825 45.5637 321.825 45.6913C321.825 45.8234 321.777 45.9442 321.681 46.0536C321.585 46.163 321.433 46.2701 321.223 46.3749C320.767 46.5982 320.296 46.7691 319.808 46.8876C319.325 47.0061 318.844 47.0653 318.366 47.0653C317.327 47.0653 316.495 46.7668 315.871 46.1698C315.246 45.5682 314.934 44.773 314.934 43.7841C314.934 42.7769 315.264 41.9611 315.925 41.3368C316.586 40.7124 317.447 40.4003 318.509 40.4003C319.471 40.4003 320.268 40.6919 320.902 41.2753C321.535 41.8586 321.852 42.565 321.852 43.3944C321.852 43.6496 321.797 43.8205 321.688 43.9071C321.583 43.9937 321.294 44.037 320.82 44.037H320.717H316.124ZM316.158 43.1415H320.608C320.54 42.5992 320.312 42.1639 319.924 41.8358C319.542 41.5031 319.07 41.3368 318.509 41.3368C317.903 41.3368 317.393 41.4963 316.978 41.8153C316.563 42.1343 316.29 42.5764 316.158 43.1415ZM323.862 46.4022V45.1854C323.862 44.9849 323.898 44.8413 323.971 44.7548C324.049 44.6682 324.172 44.6249 324.34 44.6249C324.527 44.6249 324.675 44.7525 324.785 45.0077C324.858 45.1626 324.924 45.2788 324.983 45.3563C325.174 45.6024 325.457 45.8007 325.831 45.951C326.204 46.0969 326.617 46.1698 327.068 46.1698C327.551 46.1698 327.938 46.0718 328.23 45.8759C328.522 45.6799 328.667 45.4224 328.667 45.1034C328.667 44.7798 328.549 44.5497 328.312 44.413C328.08 44.2762 327.679 44.2079 327.109 44.2079H326.733C325.803 44.2079 325.095 44.0461 324.607 43.7225C324.119 43.399 323.875 42.9296 323.875 42.3143C323.875 41.7128 324.112 41.2456 324.586 40.913C325.065 40.5803 325.735 40.4139 326.596 40.4139C326.947 40.4139 327.305 40.4641 327.669 40.5643C328.034 40.66 328.225 40.7079 328.244 40.7079C328.294 40.7079 328.389 40.6646 328.531 40.578C328.672 40.4869 328.811 40.4413 328.948 40.4413C329.103 40.4413 329.217 40.4983 329.29 40.6122C329.367 40.7261 329.406 40.897 329.406 41.1249V41.9247C329.406 42.1662 329.369 42.3417 329.296 42.451C329.223 42.5559 329.107 42.6083 328.948 42.6083C328.811 42.6083 328.642 42.4921 328.442 42.2596C328.301 42.1001 328.184 41.9794 328.093 41.8973C327.852 41.674 327.594 41.5145 327.321 41.4188C327.047 41.3186 326.726 41.2684 326.357 41.2684C325.929 41.2684 325.582 41.3641 325.318 41.5555C325.058 41.7424 324.928 41.9816 324.928 42.2733C324.928 42.5604 325.063 42.7655 325.332 42.8885C325.6 43.0116 326.179 43.0822 327.068 43.1005C328.016 43.1233 328.708 43.2896 329.146 43.5995C329.583 43.9048 329.802 44.3788 329.802 45.0214C329.802 45.6366 329.561 46.1288 329.078 46.4979C328.595 46.8671 327.943 47.0516 327.123 47.0516C326.863 47.0516 326.573 47.0266 326.254 46.9764C325.935 46.9309 325.534 46.8511 325.051 46.7372C324.892 46.842 324.755 46.9195 324.641 46.9696C324.527 47.0243 324.431 47.0516 324.354 47.0516C324.194 47.0516 324.071 46.9969 323.985 46.8876C323.903 46.7736 323.862 46.6119 323.862 46.4022Z" fill="white"/>
<rect y="32.3091" width="245" height="21.0804" fill="#919191"/>
<rect y="32.3091" width="72.52" height="21.0811" fill="#FF8A00"/>
<path d="M141.704 46.9158C141.463 46.9158 141.283 46.8679 141.164 46.7722C141.05 46.672 140.993 46.5193 140.993 46.3142C140.993 46.018 141.431 45.462 142.306 44.6462L142.504 44.4548C142.636 44.3272 142.827 44.1449 143.078 43.908C144.655 42.4223 145.443 41.3399 145.443 40.6609C145.443 40.1733 145.304 39.7791 145.026 39.4783C144.748 39.1729 144.388 39.0203 143.946 39.0203C143.659 39.0203 143.383 39.0795 143.119 39.198C142.859 39.3165 142.65 39.476 142.49 39.6765C142.463 39.713 142.42 39.7745 142.36 39.8611C142.192 40.1664 142.003 40.3191 141.793 40.3191C141.629 40.3191 141.513 40.269 141.444 40.1687C141.376 40.0684 141.342 39.877 141.342 39.5945C141.342 39.4304 141.358 39.3119 141.39 39.239C141.422 39.1615 141.481 39.0795 141.567 38.9929C141.859 38.7104 142.219 38.4871 142.647 38.323C143.08 38.1544 143.522 38.0701 143.974 38.0701C144.73 38.0701 145.361 38.3139 145.867 38.8015C146.378 39.2891 146.633 39.8884 146.633 40.5994C146.633 41.4926 145.858 42.6798 144.309 44.1609C143.912 44.53 143.609 44.8194 143.399 45.0291L142.559 45.8357H145.683C145.701 45.6397 145.753 45.4916 145.84 45.3914C145.931 45.2865 146.052 45.2341 146.202 45.2341C146.353 45.2341 146.471 45.2843 146.558 45.3845C146.644 45.4848 146.688 45.6215 146.688 45.7947C146.688 45.8083 146.685 45.8334 146.681 45.8699C146.676 45.9018 146.674 45.9246 146.674 45.9382L146.619 46.4646C146.605 46.6059 146.564 46.7175 146.496 46.7996C146.428 46.877 146.339 46.9158 146.229 46.9158H141.704ZM153.558 42.2126C154.091 42.3585 154.503 42.6251 154.795 43.0125C155.091 43.3953 155.239 43.8647 155.239 44.4207C155.239 45.2182 154.957 45.8722 154.392 46.3826C153.826 46.8884 153.095 47.1414 152.197 47.1414C151.505 47.1414 150.887 47.0092 150.345 46.7449C149.807 46.476 149.538 46.182 149.538 45.863C149.538 45.7263 149.586 45.6147 149.682 45.5281C149.782 45.4369 149.903 45.3914 150.044 45.3914C150.121 45.3914 150.402 45.5076 150.885 45.74C151.372 45.9724 151.826 46.0886 152.245 46.0886C152.787 46.0886 153.227 45.9337 153.564 45.6238C153.906 45.3139 154.077 44.9128 154.077 44.4207C154.077 44.0151 153.959 43.6733 153.722 43.3953C153.489 43.1127 153.168 42.9327 152.758 42.8552C152.635 42.8324 152.473 42.8142 152.272 42.8005C151.89 42.7778 151.698 42.6182 151.698 42.322C151.698 42.0531 151.885 41.8959 152.259 41.8503C152.405 41.8367 152.525 41.8207 152.621 41.8025C152.977 41.7478 153.264 41.602 153.482 41.365C153.701 41.128 153.811 40.8409 153.811 40.5037C153.811 40.0707 153.676 39.7175 153.407 39.4441C153.138 39.1707 152.797 39.0339 152.382 39.0339C151.999 39.0339 151.605 39.1524 151.199 39.3894C150.798 39.6264 150.548 39.7449 150.447 39.7449C150.32 39.7449 150.213 39.7039 150.126 39.6218C150.044 39.5398 150.003 39.4373 150.003 39.3142C150.003 39.0362 150.258 38.7605 150.769 38.4871C151.279 38.2091 151.844 38.0701 152.464 38.0701C153.175 38.0701 153.765 38.2865 154.234 38.7195C154.708 39.1479 154.945 39.6765 154.945 40.3054C154.945 40.7839 154.831 41.1781 154.604 41.488C154.38 41.7979 154.032 42.0395 153.558 42.2126ZM166.382 46.9158H166.061C165.896 46.9158 165.771 46.8748 165.685 46.7927C165.603 46.7107 165.562 46.5876 165.562 46.4236C165.562 46.2413 165.609 46.1182 165.705 46.0544C165.805 45.9861 166.031 45.9519 166.382 45.9519H166.819V39.7927H166.382C166.04 39.7927 165.817 39.7585 165.712 39.6902C165.612 39.6173 165.562 39.4874 165.562 39.3005C165.562 39.1319 165.603 39.0089 165.685 38.9314C165.771 38.8494 165.901 38.8083 166.074 38.8083H166.382H172.028C172.183 38.8083 172.299 38.8562 172.377 38.9519C172.459 39.0431 172.5 39.1775 172.5 39.3552V40.9685C172.5 41.2055 172.466 41.3695 172.397 41.4607C172.329 41.5518 172.206 41.5974 172.028 41.5974C171.841 41.5974 171.712 41.5473 171.639 41.447C171.57 41.3468 171.536 41.1212 171.536 40.7703V39.7927H167.899V42.0964H169.69V41.7341C169.69 41.488 169.722 41.3171 169.786 41.2214C169.854 41.1257 169.971 41.0779 170.135 41.0779C170.294 41.0779 170.404 41.1303 170.463 41.2351C170.527 41.3354 170.559 41.5541 170.559 41.8914V43.1628C170.559 43.5046 170.527 43.7234 170.463 43.8191C170.399 43.9148 170.285 43.9626 170.121 43.9626C169.957 43.9626 169.843 43.908 169.779 43.7986C169.72 43.6892 169.69 43.4773 169.69 43.1628V42.9236H167.899V45.9519H171.536V44.8445C171.536 44.4936 171.57 44.268 171.639 44.1677C171.712 44.0675 171.841 44.0173 172.028 44.0173C172.201 44.0173 172.322 44.0652 172.391 44.1609C172.464 44.252 172.5 44.4275 172.5 44.6873V46.4099C172.5 46.574 172.459 46.6993 172.377 46.7859C172.295 46.8725 172.179 46.9158 172.028 46.9158H166.382ZM177.258 38.9519H176.096C175.654 38.9519 175.376 38.9177 175.262 38.8494C175.152 38.7764 175.098 38.6466 175.098 38.4597C175.098 38.2957 175.143 38.1726 175.234 38.0906C175.33 38.0085 175.467 37.9675 175.645 37.9675H177.9C178.023 37.9675 178.119 37.9926 178.188 38.0427C178.256 38.0929 178.29 38.1612 178.29 38.2478V45.9519H180.437C180.61 45.9519 180.735 45.9906 180.812 46.0681C180.895 46.141 180.936 46.2595 180.936 46.4236C180.936 46.6104 180.897 46.7403 180.819 46.8132C180.742 46.8816 180.596 46.9158 180.382 46.9158H175.337C175.159 46.9158 175.022 46.8748 174.927 46.7927C174.836 46.7107 174.79 46.5876 174.79 46.4236C174.79 46.2641 174.838 46.1456 174.934 46.0681C175.029 45.9906 175.173 45.9519 175.364 45.9519H177.258V38.9519ZM183.813 44.0583C183.85 44.7146 184.071 45.2227 184.477 45.5828C184.887 45.9382 185.445 46.116 186.151 46.116C186.685 46.116 187.266 45.9747 187.895 45.6921C188.523 45.405 188.904 45.2615 189.036 45.2615C189.173 45.2615 189.287 45.3048 189.378 45.3914C189.469 45.4779 189.515 45.585 189.515 45.7126C189.515 45.8448 189.467 45.9656 189.371 46.075C189.275 46.1843 189.123 46.2914 188.913 46.3962C188.457 46.6195 187.986 46.7904 187.498 46.9089C187.015 47.0274 186.534 47.0867 186.056 47.0867C185.017 47.0867 184.185 46.7882 183.561 46.1912C182.936 45.5896 182.624 44.7944 182.624 43.8054C182.624 42.7983 182.954 41.9825 183.615 41.3582C184.276 40.7338 185.137 40.4216 186.199 40.4216C187.161 40.4216 187.958 40.7133 188.592 41.2966C189.225 41.88 189.542 42.5863 189.542 43.4158C189.542 43.671 189.487 43.8419 189.378 43.9285C189.273 44.0151 188.984 44.0583 188.51 44.0583H188.407H183.813ZM183.848 43.1628H188.298C188.229 42.6205 188.002 42.1853 187.614 41.8572C187.231 41.5245 186.76 41.3582 186.199 41.3582C185.593 41.3582 185.083 41.5177 184.668 41.8367C184.253 42.1557 183.98 42.5977 183.848 43.1628ZM197.068 43.1082C197.068 42.4656 197.009 42.0326 196.891 41.8093C196.777 41.5815 196.578 41.4675 196.296 41.4675C195.959 41.4675 195.69 41.6134 195.489 41.905C195.293 42.1967 195.195 42.5977 195.195 43.1082V45.9519H195.318C195.596 45.9519 195.781 45.9861 195.872 46.0544C195.968 46.1182 196.016 46.2413 196.016 46.4236C196.016 46.5876 195.977 46.7107 195.899 46.7927C195.822 46.8748 195.703 46.9158 195.544 46.9158H194.676C194.48 46.9158 194.345 46.8702 194.272 46.7791C194.204 46.6879 194.17 46.4919 194.17 46.1912V45.9929V43.1082V42.575C194.17 42.2332 194.092 41.9643 193.938 41.7683C193.783 41.5678 193.571 41.4675 193.302 41.4675C193.097 41.4675 192.908 41.5291 192.734 41.6521C192.566 41.7706 192.42 41.9483 192.297 42.1853V45.9519H192.55C192.823 45.9519 193.008 45.9861 193.104 46.0544C193.199 46.1228 193.247 46.2458 193.247 46.4236C193.247 46.6104 193.208 46.7403 193.131 46.8132C193.053 46.8816 192.905 46.9158 192.687 46.9158H190.868C190.69 46.9158 190.558 46.877 190.472 46.7996C190.39 46.7175 190.349 46.5922 190.349 46.4236C190.349 46.2413 190.401 46.1182 190.506 46.0544C190.615 45.9861 190.825 45.9519 191.135 45.9519H191.271V41.5701H191.148C190.829 41.5701 190.611 41.5336 190.492 41.4607C190.378 41.3878 190.321 41.2602 190.321 41.0779C190.321 40.9184 190.367 40.7999 190.458 40.7224C190.549 40.6404 190.686 40.5994 190.868 40.5994H191.914C192.064 40.5994 192.162 40.6267 192.208 40.6814C192.258 40.7315 192.288 40.8409 192.297 41.0095C192.484 40.809 192.684 40.6609 192.898 40.5652C193.113 40.4695 193.354 40.4216 193.623 40.4216C193.942 40.4216 194.204 40.4923 194.409 40.6335C194.619 40.7703 194.774 40.9799 194.874 41.2625C195.065 40.9753 195.286 40.7634 195.537 40.6267C195.788 40.49 196.075 40.4216 196.398 40.4216C196.986 40.4216 197.415 40.613 197.684 40.9958C197.957 41.3787 198.094 41.9985 198.094 42.8552V45.9519H198.203C198.486 45.9519 198.675 45.9861 198.771 46.0544C198.866 46.1228 198.914 46.2458 198.914 46.4236C198.914 46.5876 198.873 46.7107 198.791 46.7927C198.709 46.8748 198.588 46.9158 198.429 46.9158H197.602C197.419 46.9158 197.285 46.8611 197.198 46.7517C197.112 46.6423 197.068 46.4692 197.068 46.2322V43.1082ZM200.63 44.0583C200.666 44.7146 200.887 45.2227 201.293 45.5828C201.703 45.9382 202.261 46.116 202.968 46.116C203.501 46.116 204.082 45.9747 204.711 45.6921C205.34 45.405 205.72 45.2615 205.853 45.2615C205.989 45.2615 206.103 45.3048 206.194 45.3914C206.285 45.4779 206.331 45.585 206.331 45.7126C206.331 45.8448 206.283 45.9656 206.188 46.075C206.092 46.1843 205.939 46.2914 205.729 46.3962C205.274 46.6195 204.802 46.7904 204.314 46.9089C203.831 47.0274 203.351 47.0867 202.872 47.0867C201.833 47.0867 201.001 46.7882 200.377 46.1912C199.753 45.5896 199.44 44.7944 199.44 43.8054C199.44 42.7983 199.771 41.9825 200.432 41.3582C201.092 40.7338 201.954 40.4216 203.016 40.4216C203.977 40.4216 204.775 40.7133 205.408 41.2966C206.042 41.88 206.358 42.5863 206.358 43.4158C206.358 43.671 206.304 43.8419 206.194 43.9285C206.09 44.0151 205.8 44.0583 205.326 44.0583H205.224H200.63ZM200.664 43.1628H205.114C205.046 42.6205 204.818 42.1853 204.431 41.8572C204.048 41.5245 203.576 41.3582 203.016 41.3582C202.41 41.3582 201.899 41.5177 201.484 41.8367C201.07 42.1557 200.796 42.5977 200.664 43.1628ZM208.806 45.9519V41.5701H208.676C208.366 41.5701 208.152 41.5336 208.033 41.4607C207.919 41.3878 207.862 41.2602 207.862 41.0779C207.862 40.9093 207.91 40.7885 208.006 40.7156C208.102 40.6381 208.257 40.5994 208.471 40.5994H208.792H209.448C209.571 40.5994 209.667 40.6244 209.735 40.6746C209.804 40.7247 209.838 40.7931 209.838 40.8796V41.3445C210.171 41.0346 210.499 40.8067 210.822 40.6609C211.15 40.5105 211.49 40.4353 211.841 40.4353C212.529 40.4353 213.069 40.6495 213.461 41.0779C213.857 41.5063 214.056 42.0987 214.056 42.8552V45.9519H214.377C214.605 45.9519 214.769 45.9906 214.869 46.0681C214.969 46.141 215.02 46.2595 215.02 46.4236C215.02 46.6013 214.965 46.7289 214.855 46.8064C214.751 46.8793 214.562 46.9158 214.288 46.9158H212.777C212.486 46.9158 212.299 46.8816 212.217 46.8132C212.135 46.7449 212.094 46.615 212.094 46.4236C212.094 46.2458 212.142 46.1228 212.237 46.0544C212.333 45.9861 212.513 45.9519 212.777 45.9519H213.017V43.1082C213.017 42.575 212.896 42.1694 212.654 41.8914C212.413 41.6088 212.062 41.4675 211.602 41.4675C211.137 41.4675 210.727 41.6248 210.371 41.9392C210.016 42.2537 209.838 42.6433 209.838 43.1082V45.9519H210.077C210.351 45.9519 210.535 45.9861 210.631 46.0544C210.727 46.1228 210.774 46.2458 210.774 46.4236C210.774 46.615 210.733 46.7449 210.651 46.8132C210.569 46.8816 210.369 46.9158 210.05 46.9158H208.806H208.437C208.25 46.9158 208.108 46.877 208.013 46.7996C207.922 46.7175 207.876 46.5922 207.876 46.4236C207.876 46.2413 207.928 46.1182 208.033 46.0544C208.143 45.9861 208.352 45.9519 208.662 45.9519H208.806ZM221.623 40.9822C221.846 40.9822 222.008 41.0209 222.108 41.0984C222.213 41.1759 222.266 41.2989 222.266 41.4675C222.266 41.627 222.218 41.7478 222.122 41.8298C222.026 41.9073 221.883 41.946 221.691 41.946H218.923V44.2292C218.923 44.9766 219.019 45.4688 219.21 45.7058C219.406 45.9428 219.739 46.0613 220.208 46.0613C220.623 46.0613 221.119 45.9405 221.698 45.699C222.277 45.4574 222.635 45.3367 222.771 45.3367C222.899 45.3367 223.006 45.3822 223.093 45.4734C223.184 45.5645 223.229 45.6762 223.229 45.8083C223.229 45.9587 223.173 46.0909 223.059 46.2048C222.949 46.3142 222.76 46.4213 222.491 46.5261C222.045 46.7039 221.641 46.8337 221.281 46.9158C220.926 46.9978 220.591 47.0388 220.276 47.0388C219.743 47.0388 219.294 46.9545 218.93 46.7859C218.57 46.6127 218.301 46.3575 218.123 46.0203C218.032 45.8608 217.966 45.6716 217.925 45.4529C217.888 45.2341 217.87 44.8969 217.87 44.4412V44.2292V41.946H216.708C216.517 41.946 216.378 41.9096 216.291 41.8367C216.204 41.7592 216.161 41.6361 216.161 41.4675C216.161 41.2807 216.22 41.1531 216.339 41.0847C216.457 41.0164 216.71 40.9822 217.098 40.9822H217.87V39.5808V39.2185C217.87 39.0225 217.911 38.879 217.993 38.7878C218.08 38.6921 218.212 38.6443 218.39 38.6443C218.59 38.6443 218.729 38.7013 218.807 38.8152C218.884 38.9291 218.923 39.1889 218.923 39.5945V40.9822H221.623ZM225.185 46.4236V45.2068C225.185 45.0063 225.221 44.8627 225.294 44.7761C225.371 44.6895 225.494 44.6462 225.663 44.6462C225.85 44.6462 225.998 44.7738 226.107 45.0291C226.18 45.184 226.246 45.3002 226.306 45.3777C226.497 45.6238 226.78 45.822 227.153 45.9724C227.527 46.1182 227.939 46.1912 228.391 46.1912C228.874 46.1912 229.261 46.0932 229.553 45.8972C229.844 45.7013 229.99 45.4438 229.99 45.1248C229.99 44.8012 229.872 44.571 229.635 44.4343C229.402 44.2976 229.001 44.2292 228.432 44.2292H228.056C227.126 44.2292 226.417 44.0675 225.93 43.7439C225.442 43.4203 225.198 42.9509 225.198 42.3357C225.198 41.7341 225.435 41.267 225.909 40.9343C226.388 40.6016 227.058 40.4353 227.919 40.4353C228.27 40.4353 228.628 40.4854 228.992 40.5857C229.357 40.6814 229.548 40.7292 229.566 40.7292C229.617 40.7292 229.712 40.686 229.854 40.5994C229.995 40.5082 230.134 40.4626 230.271 40.4626C230.425 40.4626 230.539 40.5196 230.612 40.6335C230.69 40.7475 230.729 40.9184 230.729 41.1462V41.946C230.729 42.1876 230.692 42.363 230.619 42.4724C230.546 42.5772 230.43 42.6296 230.271 42.6296C230.134 42.6296 229.965 42.5134 229.765 42.281C229.623 42.1215 229.507 42.0007 229.416 41.9187C229.174 41.6954 228.917 41.5359 228.644 41.4402C228.37 41.3399 228.049 41.2898 227.68 41.2898C227.251 41.2898 226.905 41.3855 226.641 41.5769C226.381 41.7638 226.251 42.003 226.251 42.2947C226.251 42.5818 226.385 42.7869 226.654 42.9099C226.923 43.033 227.502 43.1036 228.391 43.1218C229.339 43.1446 230.031 43.311 230.469 43.6208C230.906 43.9262 231.125 44.4001 231.125 45.0427C231.125 45.658 230.883 46.1501 230.4 46.5193C229.917 46.8884 229.266 47.073 228.445 47.073C228.186 47.073 227.896 47.0479 227.577 46.9978C227.258 46.9522 226.857 46.8725 226.374 46.7585C226.215 46.8634 226.078 46.9408 225.964 46.991C225.85 47.0457 225.754 47.073 225.677 47.073C225.517 47.073 225.394 47.0183 225.308 46.9089C225.226 46.795 225.185 46.6332 225.185 46.4236Z" fill="white"/>
<path d="M9.98877 46.6765C9.96598 46.8816 9.91357 47.0229 9.83154 47.1003C9.74951 47.1824 9.61963 47.2234 9.44189 47.2234C9.25049 47.2234 9.10693 47.1664 9.01123 47.0525C8.92008 46.9431 8.86768 46.7631 8.854 46.5125L8.76514 44.9265V44.8035C8.76514 44.5847 8.80615 44.4298 8.88818 44.3386C8.97477 44.2475 9.11605 44.2019 9.31201 44.2019C9.58545 44.2019 9.78141 44.3979 9.8999 44.7898C9.95459 44.9858 10.007 45.1339 10.0571 45.2341C10.2166 45.5531 10.4673 45.7992 10.8091 45.9724C11.1554 46.1456 11.5679 46.2322 12.0464 46.2322C12.6343 46.2322 13.1105 46.0932 13.4751 45.8152C13.8442 45.5372 14.0288 45.1817 14.0288 44.7488C14.0288 44.3888 13.9149 44.0994 13.687 43.8806C13.4637 43.6619 13.1356 43.5206 12.7026 43.4568L11.6909 43.3201C10.7476 43.1879 10.0594 42.9395 9.62646 42.575C9.19352 42.2104 8.97705 41.6977 8.97705 41.0369C8.97705 40.3396 9.26416 39.754 9.83838 39.28C10.4172 38.8061 11.1372 38.5691 11.9985 38.5691C12.2492 38.5691 12.5135 38.6033 12.7915 38.6716C13.0695 38.7354 13.384 38.838 13.7349 38.9792C13.744 38.8471 13.7804 38.7559 13.8442 38.7058C13.908 38.6557 14.0174 38.6306 14.1724 38.6306C14.3729 38.6306 14.5119 38.6602 14.5894 38.7195C14.6668 38.7787 14.7147 38.92 14.7329 39.1433L14.8286 40.572V40.6404C14.8286 40.7999 14.783 40.9252 14.6919 41.0164C14.6007 41.1029 14.4731 41.1462 14.3091 41.1462C14.0675 41.1462 13.8807 40.9776 13.7485 40.6404C13.6847 40.449 13.6209 40.3054 13.5571 40.2097C13.4067 39.9819 13.1903 39.8064 12.9077 39.6833C12.6252 39.5603 12.3039 39.4988 11.9438 39.4988C11.3924 39.4988 10.9435 39.6355 10.5972 39.9089C10.2554 40.1824 10.0845 40.5401 10.0845 40.9822C10.0845 41.3285 10.2121 41.602 10.4673 41.8025C10.7271 42.003 11.1213 42.1397 11.6499 42.2126L12.7437 42.3494C13.5366 42.4542 14.1336 42.698 14.5347 43.0808C14.9357 43.4591 15.1362 43.9718 15.1362 44.6189C15.1362 45.3845 14.8514 45.9998 14.2817 46.4646C13.7121 46.9249 12.951 47.155 11.9985 47.155C11.6704 47.155 11.3446 47.1163 11.021 47.0388C10.6974 46.9613 10.3534 46.8406 9.98877 46.6765ZM20.3931 46.1296C21.0949 46.1296 21.6691 45.9086 22.1157 45.4666C22.5669 45.0199 22.7925 44.4526 22.7925 43.7644C22.7925 43.0763 22.5669 42.5089 22.1157 42.0623C21.6646 41.6111 21.0903 41.3855 20.3931 41.3855C19.6958 41.3855 19.1216 41.6111 18.6704 42.0623C18.2238 42.5089 18.0005 43.0763 18.0005 43.7644C18.0005 44.4571 18.2238 45.0245 18.6704 45.4666C19.117 45.9086 19.6912 46.1296 20.3931 46.1296ZM23.9819 43.7644C23.9819 44.7397 23.6493 45.5372 22.9839 46.157C22.3185 46.7768 21.4549 47.0867 20.3931 47.0867C19.3358 47.0867 18.4744 46.7768 17.8091 46.157C17.1437 45.5372 16.811 44.7397 16.811 43.7644C16.811 42.7891 17.1437 41.9939 17.8091 41.3787C18.4744 40.7589 19.3358 40.449 20.3931 40.449C21.4504 40.449 22.3117 40.7589 22.9771 41.3787C23.647 41.9985 23.9819 42.7937 23.9819 43.7644ZM26.2583 45.9519V41.5701H26.1284C25.8185 41.5701 25.6043 41.5336 25.4858 41.4607C25.3719 41.3878 25.3149 41.2602 25.3149 41.0779C25.3149 40.9093 25.3628 40.7885 25.4585 40.7156C25.5542 40.6381 25.7091 40.5994 25.9233 40.5994H26.2446H26.9009C27.0239 40.5994 27.1196 40.6244 27.188 40.6746C27.2563 40.7247 27.2905 40.7931 27.2905 40.8796V41.3445C27.6232 41.0346 27.9513 40.8067 28.2749 40.6609C28.603 40.5105 28.9425 40.4353 29.2935 40.4353C29.9816 40.4353 30.5216 40.6495 30.9136 41.0779C31.3101 41.5063 31.5083 42.0987 31.5083 42.8552V45.9519H31.8296C32.0575 45.9519 32.2215 45.9906 32.3218 46.0681C32.422 46.141 32.4722 46.2595 32.4722 46.4236C32.4722 46.6013 32.4175 46.7289 32.3081 46.8064C32.2033 46.8793 32.0142 46.9158 31.7407 46.9158H30.23C29.9383 46.9158 29.7515 46.8816 29.6694 46.8132C29.5874 46.7449 29.5464 46.615 29.5464 46.4236C29.5464 46.2458 29.5942 46.1228 29.6899 46.0544C29.7856 45.9861 29.9657 45.9519 30.23 45.9519H30.4692V43.1082C30.4692 42.575 30.3485 42.1694 30.1069 41.8914C29.8654 41.6088 29.5145 41.4675 29.0542 41.4675C28.5894 41.4675 28.1792 41.6248 27.8237 41.9392C27.4683 42.2537 27.2905 42.6433 27.2905 43.1082V45.9519H27.5298C27.8032 45.9519 27.9878 45.9861 28.0835 46.0544C28.1792 46.1228 28.2271 46.2458 28.2271 46.4236C28.2271 46.615 28.186 46.7449 28.104 46.8132C28.022 46.8816 27.8215 46.9158 27.5024 46.9158H26.2583H25.8892C25.7023 46.9158 25.561 46.877 25.4653 46.7996C25.3742 46.7175 25.3286 46.5922 25.3286 46.4236C25.3286 46.2413 25.381 46.1182 25.4858 46.0544C25.5952 45.9861 25.8049 45.9519 26.1147 45.9519H26.2583ZM37.0181 41.6111C36.4211 41.6111 35.9334 41.7957 35.5552 42.1648C35.1769 42.5339 34.9878 43.0125 34.9878 43.6003C34.9878 44.1791 35.1769 44.6554 35.5552 45.0291C35.9334 45.3982 36.4211 45.5828 37.0181 45.5828C37.6105 45.5828 38.0959 45.3982 38.4741 45.0291C38.8569 44.6554 39.0483 44.1791 39.0483 43.6003C39.0483 43.0216 38.8569 42.5453 38.4741 42.1716C38.0959 41.7979 37.6105 41.6111 37.0181 41.6111ZM39.9849 46.5535C39.9849 47.1915 39.953 47.6427 39.8892 47.907C39.8254 48.1759 39.716 48.4106 39.561 48.6111C39.3058 48.9483 38.9481 49.2035 38.4878 49.3767C38.0275 49.5544 37.4852 49.6433 36.8608 49.6433C36.3413 49.6433 35.9608 49.5932 35.7192 49.4929C35.4823 49.3927 35.3638 49.2332 35.3638 49.0144C35.3638 48.8731 35.4207 48.7478 35.5347 48.6384C35.6532 48.5336 35.7922 48.4812 35.9517 48.4812C36.0747 48.4812 36.2638 48.4972 36.519 48.5291C36.7743 48.5655 36.9679 48.5837 37.1001 48.5837C37.7746 48.5837 38.2531 48.4288 38.5356 48.1189C38.8182 47.809 38.9595 47.2781 38.9595 46.5261V45.699C38.6815 46.0225 38.3739 46.2595 38.0366 46.4099C37.6994 46.5603 37.312 46.6355 36.8745 46.6355C36.0223 46.6355 35.3159 46.3529 34.7554 45.7878C34.1994 45.2182 33.9214 44.4981 33.9214 43.6277C33.9214 42.7527 34.2085 42.0281 34.7827 41.4539C35.3569 40.8751 36.0679 40.5857 36.9155 40.5857C37.2664 40.5857 37.6082 40.6518 37.9409 40.7839C38.2782 40.9115 38.6177 41.1075 38.9595 41.3718V40.8796C38.9595 40.7839 38.9891 40.7133 39.0483 40.6677C39.1121 40.6222 39.2101 40.5994 39.3423 40.5994H40.3745C40.5568 40.5994 40.6935 40.6404 40.7847 40.7224C40.8758 40.7999 40.9214 40.9184 40.9214 41.0779C40.9214 41.2602 40.8644 41.3878 40.7505 41.4607C40.6366 41.5336 40.4224 41.5701 40.1079 41.5701H39.9849V46.5535ZM42.6372 46.4236V45.2068C42.6372 45.0063 42.6737 44.8627 42.7466 44.7761C42.8241 44.6895 42.9471 44.6462 43.1157 44.6462C43.3026 44.6462 43.4507 44.7738 43.5601 45.0291C43.633 45.184 43.6991 45.3002 43.7583 45.3777C43.9497 45.6238 44.2323 45.822 44.606 45.9724C44.9797 46.1182 45.3921 46.1912 45.8433 46.1912C46.3263 46.1912 46.7137 46.0932 47.0054 45.8972C47.297 45.7013 47.4429 45.4438 47.4429 45.1248C47.4429 44.8012 47.3244 44.571 47.0874 44.4343C46.855 44.2976 46.4539 44.2292 45.8843 44.2292H45.5083C44.5786 44.2292 43.87 44.0675 43.3823 43.7439C42.8947 43.4203 42.6509 42.9509 42.6509 42.3357C42.6509 41.7341 42.8879 41.267 43.3618 40.9343C43.8403 40.6016 44.5103 40.4353 45.3716 40.4353C45.7225 40.4353 46.0802 40.4854 46.4448 40.5857C46.8094 40.6814 47.0008 40.7292 47.019 40.7292C47.0692 40.7292 47.1649 40.686 47.3062 40.5994C47.4474 40.5082 47.5864 40.4626 47.7231 40.4626C47.8781 40.4626 47.992 40.5196 48.0649 40.6335C48.1424 40.7475 48.1812 40.9184 48.1812 41.1462V41.946C48.1812 42.1876 48.1447 42.363 48.0718 42.4724C47.9989 42.5772 47.8826 42.6296 47.7231 42.6296C47.5864 42.6296 47.4178 42.5134 47.2173 42.281C47.076 42.1215 46.9598 42.0007 46.8687 41.9187C46.6271 41.6954 46.3696 41.5359 46.0962 41.4402C45.8228 41.3399 45.5015 41.2898 45.1323 41.2898C44.7039 41.2898 44.3576 41.3855 44.0933 41.5769C43.8335 41.7638 43.7036 42.003 43.7036 42.2947C43.7036 42.5818 43.8381 42.7869 44.1069 42.9099C44.3758 43.033 44.9546 43.1036 45.8433 43.1218C46.7912 43.1446 47.4839 43.311 47.9214 43.6208C48.3589 43.9262 48.5776 44.4001 48.5776 45.0427C48.5776 45.658 48.3361 46.1501 47.853 46.5193C47.37 46.8884 46.7183 47.073 45.8979 47.073C45.6382 47.073 45.3488 47.0479 45.0298 46.9978C44.7108 46.9522 44.3097 46.8725 43.8267 46.7585C43.6672 46.8634 43.5304 46.9408 43.4165 46.991C43.3026 47.0457 43.2069 47.073 43.1294 47.073C42.9699 47.073 42.8468 47.0183 42.7603 46.9089C42.6782 46.795 42.6372 46.6332 42.6372 46.4236Z" fill="white"/>
<rect x="256" y="0.438049" width="245" height="21.0804" fill="#919191"/>
<rect x="256" y="0.438049" width="20.7039" height="21.0811" fill="#FF8A00"/>
<path d="M406.832 15.0233C406.591 15.0233 406.411 14.9755 406.292 14.8798C406.178 14.7795 406.121 14.6268 406.121 14.4218C406.121 14.1255 406.559 13.5695 407.434 12.7538L407.632 12.5624C407.764 12.4348 407.956 12.2525 408.206 12.0155C409.783 10.5298 410.572 9.44747 410.572 8.76843C410.572 8.2808 410.433 7.8866 410.155 7.58582C409.877 7.28048 409.517 7.12781 409.074 7.12781C408.787 7.12781 408.512 7.18705 408.247 7.30554C407.988 7.42403 407.778 7.58354 407.618 7.78406C407.591 7.82052 407.548 7.88204 407.489 7.96863C407.32 8.27397 407.131 8.42664 406.921 8.42664C406.757 8.42664 406.641 8.37651 406.573 8.27625C406.504 8.17598 406.47 7.98458 406.47 7.70203C406.47 7.53796 406.486 7.41947 406.518 7.34656C406.55 7.26908 406.609 7.18705 406.696 7.10046C406.987 6.81791 407.347 6.5946 407.776 6.43054C408.209 6.26192 408.651 6.17761 409.102 6.17761C409.858 6.17761 410.49 6.42143 410.995 6.90906C411.506 7.39669 411.761 7.99597 411.761 8.70691C411.761 9.60014 410.986 10.7873 409.437 12.2684C409.04 12.6376 408.737 12.927 408.528 13.1366L407.687 13.9432H410.811C410.829 13.7473 410.881 13.5992 410.968 13.4989C411.059 13.3941 411.18 13.3417 411.33 13.3417C411.481 13.3417 411.599 13.3918 411.686 13.4921C411.772 13.5923 411.816 13.729 411.816 13.9022C411.816 13.9159 411.813 13.941 411.809 13.9774C411.804 14.0093 411.802 14.0321 411.802 14.0458L411.747 14.5721C411.734 14.7134 411.693 14.8251 411.624 14.9071C411.556 14.9846 411.467 15.0233 411.358 15.0233H406.832ZM423.102 15.0233H422.781C422.616 15.0233 422.491 14.9823 422.405 14.9003C422.323 14.8182 422.281 14.6952 422.281 14.5311C422.281 14.3488 422.329 14.2258 422.425 14.162C422.525 14.0936 422.751 14.0594 423.102 14.0594H423.539V7.90027H423.102C422.76 7.90027 422.537 7.86609 422.432 7.79773C422.332 7.72481 422.281 7.59493 422.281 7.40808C422.281 7.23946 422.323 7.11641 422.405 7.03894C422.491 6.95691 422.621 6.91589 422.794 6.91589H423.102H428.748C428.903 6.91589 429.019 6.96375 429.097 7.05945C429.179 7.15059 429.22 7.28503 429.22 7.46277V9.07605C429.22 9.31303 429.186 9.47709 429.117 9.56824C429.049 9.65938 428.926 9.70496 428.748 9.70496C428.561 9.70496 428.432 9.65483 428.359 9.55457C428.29 9.45431 428.256 9.22872 428.256 8.87781V7.90027H424.619V10.204H426.41V9.84167C426.41 9.59558 426.442 9.42468 426.506 9.32898C426.574 9.23328 426.691 9.18542 426.855 9.18542C427.014 9.18542 427.124 9.23783 427.183 9.34265C427.247 9.44291 427.279 9.66166 427.279 9.9989V11.2704C427.279 11.6122 427.247 11.8309 427.183 11.9266C427.119 12.0223 427.005 12.0702 426.841 12.0702C426.677 12.0702 426.563 12.0155 426.499 11.9061C426.44 11.7968 426.41 11.5848 426.41 11.2704V11.0311H424.619V14.0594H428.256V12.952C428.256 12.6011 428.29 12.3755 428.359 12.2753C428.432 12.175 428.561 12.1249 428.748 12.1249C428.921 12.1249 429.042 12.1727 429.111 12.2684C429.184 12.3596 429.22 12.535 429.22 12.7948V14.5175C429.22 14.6815 429.179 14.8068 429.097 14.8934C429.015 14.98 428.899 15.0233 428.748 15.0233H423.102ZM433.978 7.05945H432.816C432.374 7.05945 432.096 7.02527 431.982 6.95691C431.872 6.88399 431.818 6.75411 431.818 6.56726C431.818 6.4032 431.863 6.28015 431.954 6.19812C432.05 6.11609 432.187 6.07507 432.365 6.07507H434.62C434.743 6.07507 434.839 6.10014 434.907 6.15027C434.976 6.2004 435.01 6.26876 435.01 6.35535V14.0594H437.156C437.33 14.0594 437.455 14.0982 437.532 14.1757C437.615 14.2486 437.656 14.3671 437.656 14.5311C437.656 14.718 437.617 14.8479 437.539 14.9208C437.462 14.9891 437.316 15.0233 437.102 15.0233H432.057C431.879 15.0233 431.742 14.9823 431.647 14.9003C431.556 14.8182 431.51 14.6952 431.51 14.5311C431.51 14.3716 431.558 14.2531 431.654 14.1757C431.749 14.0982 431.893 14.0594 432.084 14.0594H433.978V7.05945ZM440.533 12.1659C440.57 12.8221 440.791 13.3303 441.197 13.6903C441.607 14.0458 442.165 14.2235 442.871 14.2235C443.405 14.2235 443.986 14.0822 444.615 13.7997C445.243 13.5126 445.624 13.369 445.756 13.369C445.893 13.369 446.007 13.4123 446.098 13.4989C446.189 13.5855 446.235 13.6926 446.235 13.8202C446.235 13.9524 446.187 14.0731 446.091 14.1825C445.995 14.2919 445.843 14.399 445.633 14.5038C445.177 14.7271 444.706 14.898 444.218 15.0165C443.735 15.135 443.254 15.1942 442.776 15.1942C441.737 15.1942 440.905 14.8957 440.281 14.2987C439.656 13.6971 439.344 12.9019 439.344 11.913C439.344 10.9058 439.674 10.09 440.335 9.4657C440.996 8.84135 441.857 8.52917 442.919 8.52917C443.881 8.52917 444.678 8.82084 445.312 9.40417C445.945 9.98751 446.262 10.6939 446.262 11.5233C446.262 11.7785 446.207 11.9494 446.098 12.036C445.993 12.1226 445.704 12.1659 445.23 12.1659H445.127H440.533ZM440.568 11.2704H445.018C444.949 10.7281 444.722 10.2928 444.334 9.96472C443.951 9.63204 443.48 9.4657 442.919 9.4657C442.313 9.4657 441.803 9.6252 441.388 9.94421C440.973 10.2632 440.7 10.7053 440.568 11.2704ZM453.788 11.2157C453.788 10.5731 453.729 10.1402 453.611 9.91687C453.497 9.68901 453.298 9.57507 453.016 9.57507C452.679 9.57507 452.41 9.72091 452.209 10.0126C452.013 10.3042 451.915 10.7053 451.915 11.2157V14.0594H452.038C452.316 14.0594 452.501 14.0936 452.592 14.162C452.688 14.2258 452.736 14.3488 452.736 14.5311C452.736 14.6952 452.697 14.8182 452.619 14.9003C452.542 14.9823 452.423 15.0233 452.264 15.0233H451.396C451.2 15.0233 451.065 14.9777 450.992 14.8866C450.924 14.7955 450.89 14.5995 450.89 14.2987V14.1005V11.2157V10.6825C450.89 10.3407 450.812 10.0718 450.657 9.87585C450.503 9.67533 450.291 9.57507 450.022 9.57507C449.817 9.57507 449.628 9.6366 449.454 9.75964C449.286 9.87813 449.14 10.0559 449.017 10.2928V14.0594H449.27C449.543 14.0594 449.728 14.0936 449.823 14.162C449.919 14.2303 449.967 14.3534 449.967 14.5311C449.967 14.718 449.928 14.8479 449.851 14.9208C449.773 14.9891 449.625 15.0233 449.406 15.0233H447.588C447.41 15.0233 447.278 14.9846 447.192 14.9071C447.11 14.8251 447.069 14.6997 447.069 14.5311C447.069 14.3488 447.121 14.2258 447.226 14.162C447.335 14.0936 447.545 14.0594 447.855 14.0594H447.991V9.67761H447.868C447.549 9.67761 447.331 9.64115 447.212 9.56824C447.098 9.49532 447.041 9.36772 447.041 9.18542C447.041 9.02592 447.087 8.90743 447.178 8.82996C447.269 8.74792 447.406 8.70691 447.588 8.70691H448.634C448.784 8.70691 448.882 8.73425 448.928 8.78894C448.978 8.83907 449.008 8.94845 449.017 9.11707C449.204 8.91654 449.404 8.76843 449.618 8.67273C449.833 8.57703 450.074 8.52917 450.343 8.52917C450.662 8.52917 450.924 8.59981 451.129 8.74109C451.339 8.87781 451.494 9.08744 451.594 9.37C451.785 9.08289 452.006 8.87097 452.257 8.73425C452.508 8.59753 452.795 8.52917 453.118 8.52917C453.706 8.52917 454.135 8.72058 454.404 9.10339C454.677 9.48621 454.814 10.106 454.814 10.9628V14.0594H454.923C455.206 14.0594 455.395 14.0936 455.49 14.162C455.586 14.2303 455.634 14.3534 455.634 14.5311C455.634 14.6952 455.593 14.8182 455.511 14.9003C455.429 14.9823 455.308 15.0233 455.149 15.0233H454.322C454.139 15.0233 454.005 14.9686 453.918 14.8593C453.832 14.7499 453.788 14.5767 453.788 14.3397V11.2157ZM457.35 12.1659C457.386 12.8221 457.607 13.3303 458.013 13.6903C458.423 14.0458 458.981 14.2235 459.688 14.2235C460.221 14.2235 460.802 14.0822 461.431 13.7997C462.06 13.5126 462.44 13.369 462.573 13.369C462.709 13.369 462.823 13.4123 462.914 13.4989C463.005 13.5855 463.051 13.6926 463.051 13.8202C463.051 13.9524 463.003 14.0731 462.907 14.1825C462.812 14.2919 462.659 14.399 462.449 14.5038C461.994 14.7271 461.522 14.898 461.034 15.0165C460.551 15.135 460.071 15.1942 459.592 15.1942C458.553 15.1942 457.721 14.8957 457.097 14.2987C456.473 13.6971 456.16 12.9019 456.16 11.913C456.16 10.9058 456.491 10.09 457.152 9.4657C457.812 8.84135 458.674 8.52917 459.736 8.52917C460.697 8.52917 461.495 8.82084 462.128 9.40417C462.762 9.98751 463.078 10.6939 463.078 11.5233C463.078 11.7785 463.024 11.9494 462.914 12.036C462.809 12.1226 462.52 12.1659 462.046 12.1659H461.944H457.35ZM457.384 11.2704H461.834C461.766 10.7281 461.538 10.2928 461.151 9.96472C460.768 9.63204 460.296 9.4657 459.736 9.4657C459.129 9.4657 458.619 9.6252 458.204 9.94421C457.79 10.2632 457.516 10.7053 457.384 11.2704ZM465.526 14.0594V9.67761H465.396C465.086 9.67761 464.872 9.64115 464.753 9.56824C464.639 9.49532 464.582 9.36772 464.582 9.18542C464.582 9.01681 464.63 8.89604 464.726 8.82312C464.822 8.74565 464.976 8.70691 465.191 8.70691H465.512H466.168C466.291 8.70691 466.387 8.73197 466.455 8.7821C466.524 8.83223 466.558 8.90059 466.558 8.98718V9.45203C466.891 9.14213 467.219 8.91427 467.542 8.76843C467.87 8.61804 468.21 8.54285 468.561 8.54285C469.249 8.54285 469.789 8.75704 470.181 9.18542C470.577 9.61381 470.776 10.2063 470.776 10.9628V14.0594H471.097C471.325 14.0594 471.489 14.0982 471.589 14.1757C471.689 14.2486 471.74 14.3671 471.74 14.5311C471.74 14.7089 471.685 14.8365 471.575 14.9139C471.471 14.9869 471.281 15.0233 471.008 15.0233H469.497C469.206 15.0233 469.019 14.9891 468.937 14.9208C468.855 14.8524 468.814 14.7225 468.814 14.5311C468.814 14.3534 468.862 14.2303 468.957 14.162C469.053 14.0936 469.233 14.0594 469.497 14.0594H469.737V11.2157C469.737 10.6825 469.616 10.2769 469.374 9.9989C469.133 9.71635 468.782 9.57507 468.322 9.57507C467.857 9.57507 467.447 9.7323 467.091 10.0468C466.736 10.3612 466.558 10.7509 466.558 11.2157V14.0594H466.797C467.071 14.0594 467.255 14.0936 467.351 14.162C467.447 14.2303 467.494 14.3534 467.494 14.5311C467.494 14.7225 467.453 14.8524 467.371 14.9208C467.289 14.9891 467.089 15.0233 466.77 15.0233H465.526H465.156C464.97 15.0233 464.828 14.9846 464.733 14.9071C464.642 14.8251 464.596 14.6997 464.596 14.5311C464.596 14.3488 464.648 14.2258 464.753 14.162C464.863 14.0936 465.072 14.0594 465.382 14.0594H465.526ZM478.343 9.08972C478.566 9.08972 478.728 9.12846 478.828 9.20593C478.933 9.28341 478.986 9.40645 478.986 9.57507C478.986 9.73458 478.938 9.85535 478.842 9.93738C478.746 10.0149 478.603 10.0536 478.411 10.0536H475.643V12.3368C475.643 13.0842 475.739 13.5764 475.93 13.8134C476.126 14.0503 476.459 14.1688 476.928 14.1688C477.343 14.1688 477.839 14.0481 478.418 13.8065C478.997 13.565 479.355 13.4442 479.491 13.4442C479.619 13.4442 479.726 13.4898 479.813 13.5809C479.904 13.6721 479.949 13.7837 479.949 13.9159C479.949 14.0663 479.892 14.1984 479.779 14.3124C479.669 14.4218 479.48 14.5288 479.211 14.6337C478.765 14.8114 478.361 14.9413 478.001 15.0233C477.646 15.1053 477.311 15.1464 476.996 15.1464C476.463 15.1464 476.014 15.0621 475.65 14.8934C475.29 14.7203 475.021 14.465 474.843 14.1278C474.752 13.9683 474.686 13.7792 474.645 13.5604C474.608 13.3417 474.59 13.0044 474.59 12.5487V12.3368V10.0536H473.428C473.237 10.0536 473.098 10.0171 473.011 9.94421C472.924 9.86674 472.881 9.74369 472.881 9.57507C472.881 9.38822 472.94 9.26062 473.059 9.19226C473.177 9.1239 473.43 9.08972 473.818 9.08972H474.59V7.68835V7.32605C474.59 7.13009 474.631 6.98653 474.713 6.89539C474.8 6.79968 474.932 6.75183 475.11 6.75183C475.31 6.75183 475.449 6.8088 475.527 6.92273C475.604 7.03666 475.643 7.29643 475.643 7.70203V9.08972H478.343ZM481.905 14.5311V13.3143C481.905 13.1138 481.941 12.9703 482.014 12.8837C482.091 12.7971 482.214 12.7538 482.383 12.7538C482.57 12.7538 482.718 12.8814 482.827 13.1366C482.9 13.2915 482.966 13.4078 483.026 13.4852C483.217 13.7313 483.5 13.9296 483.873 14.08C484.247 14.2258 484.659 14.2987 485.111 14.2987C485.594 14.2987 485.981 14.2007 486.273 14.0048C486.564 13.8088 486.71 13.5513 486.71 13.2323C486.71 12.9087 486.592 12.6786 486.355 12.5419C486.122 12.4052 485.721 12.3368 485.152 12.3368H484.776C483.846 12.3368 483.137 12.175 482.65 11.8514C482.162 11.5279 481.918 11.0585 481.918 10.4432C481.918 9.84167 482.155 9.37455 482.629 9.04187C483.108 8.70919 483.778 8.54285 484.639 8.54285C484.99 8.54285 485.348 8.59298 485.712 8.69324C486.077 8.78894 486.268 8.83679 486.286 8.83679C486.337 8.83679 486.432 8.7935 486.573 8.70691C486.715 8.61576 486.854 8.57019 486.99 8.57019C487.145 8.57019 487.259 8.62716 487.332 8.74109C487.41 8.85502 487.448 9.02592 487.448 9.25378V10.0536C487.448 10.2951 487.412 10.4706 487.339 10.58C487.266 10.6848 487.15 10.7372 486.99 10.7372C486.854 10.7372 486.685 10.621 486.485 10.3885C486.343 10.229 486.227 10.1083 486.136 10.0262C485.894 9.80294 485.637 9.64343 485.364 9.54773C485.09 9.44747 484.769 9.39734 484.4 9.39734C483.971 9.39734 483.625 9.49304 483.361 9.68445C483.101 9.8713 482.971 10.1106 482.971 10.4022C482.971 10.6893 483.105 10.8944 483.374 11.0175C483.643 11.1405 484.222 11.2111 485.111 11.2294C486.059 11.2522 486.751 11.4185 487.189 11.7284C487.626 12.0337 487.845 12.5077 487.845 13.1503C487.845 13.7655 487.603 14.2577 487.12 14.6268C486.637 14.996 485.986 15.1805 485.165 15.1805C484.906 15.1805 484.616 15.1555 484.297 15.1053C483.978 15.0598 483.577 14.98 483.094 14.8661C482.934 14.9709 482.798 15.0484 482.684 15.0985C482.57 15.1532 482.474 15.1805 482.397 15.1805C482.237 15.1805 482.114 15.1259 482.028 15.0165C481.946 14.9025 481.905 14.7408 481.905 14.5311Z" fill="white"/>
<path d="M266.351 14.0594C266.497 14.0731 266.64 14.0845 266.782 14.0936C266.928 14.0982 267.069 14.1005 267.206 14.1005C268.327 14.1005 269.147 13.8498 269.667 13.3485C270.191 12.8472 270.453 12.0565 270.453 10.9764C270.453 9.89181 270.191 9.10339 269.667 8.61121C269.142 8.11446 268.304 7.86609 267.151 7.86609C266.937 7.86609 266.773 7.86837 266.659 7.87292C266.549 7.87748 266.447 7.8866 266.351 7.90027V14.0594ZM266.351 15.0233H265.271H264.963C264.795 15.0233 264.667 14.9823 264.581 14.9003C264.499 14.8182 264.458 14.6952 264.458 14.5311C264.458 14.3534 264.505 14.2303 264.601 14.162C264.701 14.0936 264.888 14.0594 265.162 14.0594H265.285V7.90027H265.175C264.902 7.90027 264.713 7.86381 264.608 7.79089C264.508 7.71798 264.458 7.59037 264.458 7.40808C264.458 7.23946 264.499 7.11641 264.581 7.03894C264.667 6.95691 264.799 6.91589 264.977 6.91589H265.271H266.351H267.862C268.997 6.91589 269.901 7.28276 270.576 8.01648C271.25 8.74565 271.587 9.7323 271.587 10.9764C271.587 11.5826 271.489 12.1454 271.293 12.6649C271.102 13.1844 270.822 13.6402 270.453 14.0321C270.111 14.3876 269.694 14.6473 269.202 14.8114C268.714 14.9709 268.085 15.0507 267.315 15.0507C267.224 15.0507 267.069 15.0461 266.85 15.037C266.636 15.0279 266.47 15.0233 266.351 15.0233ZM275.723 14.0594H277.993C278.17 14.0594 278.3 14.0982 278.382 14.1757C278.469 14.2486 278.512 14.3671 278.512 14.5311C278.512 14.718 278.471 14.8479 278.389 14.9208C278.312 14.9891 278.166 15.0233 277.952 15.0233H273.481C273.303 15.0233 273.169 14.9823 273.078 14.9003C272.986 14.8182 272.941 14.6952 272.941 14.5311C272.941 14.3716 272.986 14.2531 273.078 14.1757C273.173 14.0982 273.319 14.0594 273.515 14.0594H274.705V9.67761H274.24C273.798 9.67761 273.522 9.64343 273.413 9.57507C273.303 9.50216 273.249 9.37227 273.249 9.18542C273.249 9.02592 273.292 8.90743 273.378 8.82996C273.47 8.74792 273.606 8.70691 273.789 8.70691H275.347C275.47 8.70691 275.564 8.73197 275.627 8.7821C275.691 8.82768 275.723 8.89604 275.723 8.98718V10.1493C276.156 9.60697 276.607 9.20365 277.077 8.93933C277.546 8.67501 278.052 8.54285 278.594 8.54285C279 8.54285 279.328 8.62488 279.579 8.78894C279.829 8.953 279.955 9.16492 279.955 9.42468C279.955 9.5933 279.891 9.74369 279.763 9.87585C279.64 10.0035 279.503 10.0673 279.353 10.0673C279.248 10.0673 279.07 9.9989 278.82 9.86218C278.574 9.72091 278.353 9.65027 278.157 9.65027C277.801 9.65027 277.425 9.77787 277.029 10.0331C276.637 10.2837 276.202 10.6825 275.723 11.2294V14.0594ZM286.319 12.0018C286.068 11.9198 285.824 11.8606 285.587 11.8241C285.355 11.7831 285.123 11.7626 284.89 11.7626C284.188 11.7626 283.635 11.8811 283.229 12.118C282.823 12.355 282.621 12.674 282.621 13.0751C282.621 13.385 282.746 13.6402 282.997 13.8407C283.252 14.0412 283.575 14.1415 283.967 14.1415C284.546 14.1415 285.082 13.9911 285.574 13.6903C286.07 13.385 286.319 13.0682 286.319 12.7401V12.0018ZM286.374 14.1552C286 14.4924 285.592 14.7499 285.15 14.9276C284.712 15.1053 284.261 15.1942 283.796 15.1942C283.117 15.1942 282.568 15.0051 282.149 14.6268C281.734 14.2486 281.527 13.7564 281.527 13.1503C281.527 12.4302 281.803 11.8719 282.354 11.4755C282.91 11.079 283.689 10.8807 284.692 10.8807C284.956 10.8807 285.223 10.899 285.492 10.9354C285.761 10.9673 286.036 11.0197 286.319 11.0927V11.0448C286.319 10.5207 286.194 10.1333 285.943 9.88269C285.692 9.63204 285.303 9.50671 284.774 9.50671C284.418 9.50671 284.022 9.60242 283.584 9.79382C283.147 9.98523 282.858 10.0809 282.716 10.0809C282.584 10.0809 282.475 10.0285 282.388 9.92371C282.302 9.81433 282.258 9.67533 282.258 9.50671C282.258 9.23783 282.509 9.00997 283.01 8.82312C283.516 8.63627 284.161 8.54285 284.945 8.54285C285.747 8.54285 286.353 8.74792 286.763 9.15808C287.173 9.56368 287.378 10.1652 287.378 10.9628V14.0594H287.713C288.037 14.0594 288.253 14.0936 288.363 14.162C288.472 14.2303 288.527 14.3534 288.527 14.5311C288.527 14.6952 288.481 14.8182 288.39 14.9003C288.299 14.9823 288.162 15.0233 287.98 15.0233H286.907C286.779 15.0233 286.674 14.9846 286.592 14.9071C286.51 14.8296 286.456 14.718 286.428 14.5721L286.374 14.1552ZM293.168 11.5507L292.287 14.7977C292.241 14.9709 292.173 15.0917 292.082 15.16C291.99 15.2284 291.854 15.2626 291.671 15.2626C291.507 15.2626 291.38 15.2193 291.289 15.1327C291.197 15.0461 291.115 14.8889 291.042 14.661L289.477 9.67761H289.416C289.224 9.67761 289.087 9.64115 289.005 9.56824C288.919 9.49076 288.875 9.36316 288.875 9.18542C288.875 9.03048 288.921 8.91199 289.012 8.82996C289.099 8.74792 289.229 8.70691 289.402 8.70691H291.227C291.473 8.70691 291.639 8.74337 291.726 8.81628C291.813 8.88464 291.856 9.00769 291.856 9.18542C291.856 9.2948 291.831 9.3905 291.781 9.47253C291.731 9.55001 291.667 9.59786 291.589 9.61609C291.512 9.63888 291.421 9.65483 291.316 9.66394C291.216 9.67306 291.093 9.67761 290.947 9.67761H290.55L291.726 13.7792L292.608 10.7987C292.658 10.6255 292.729 10.5048 292.82 10.4364C292.911 10.368 293.045 10.3339 293.223 10.3339C293.387 10.3339 293.515 10.3794 293.606 10.4706C293.702 10.5572 293.786 10.7121 293.859 10.9354L294.713 13.7792L295.841 9.67761H295.677H295.383C295.069 9.67761 294.857 9.64343 294.748 9.57507C294.638 9.50216 294.583 9.37227 294.583 9.18542C294.583 9.00313 294.625 8.87781 294.707 8.80945C294.789 8.74109 294.948 8.70691 295.185 8.70691H297.017C297.158 8.70691 297.263 8.74792 297.332 8.82996C297.404 8.91199 297.441 9.03048 297.441 9.18542C297.441 9.3586 297.4 9.48165 297.318 9.55457C297.236 9.62748 297.081 9.6685 296.853 9.67761L295.315 14.7977C295.256 14.9709 295.181 15.0917 295.089 15.16C295.003 15.2284 294.871 15.2626 294.693 15.2626C294.529 15.2626 294.399 15.217 294.303 15.1259C294.208 15.0393 294.128 14.8843 294.064 14.661L293.168 11.5507ZM300.989 6.73816C300.989 6.24597 301.032 5.93608 301.119 5.80847C301.21 5.68087 301.401 5.61707 301.693 5.61707C301.975 5.61707 302.162 5.67175 302.253 5.78113C302.345 5.88595 302.39 6.13888 302.39 6.53992C302.39 6.93184 302.347 7.17566 302.26 7.27136C302.178 7.36251 301.989 7.40808 301.693 7.40808C301.401 7.40808 301.21 7.36479 301.119 7.2782C301.032 7.19161 300.989 7.0116 300.989 6.73816ZM302.253 14.0594H304.448C304.625 14.0594 304.755 14.0982 304.837 14.1757C304.924 14.2486 304.967 14.3671 304.967 14.5311C304.967 14.718 304.926 14.8479 304.844 14.9208C304.767 14.9891 304.621 15.0233 304.407 15.0233H299.102C298.92 15.0233 298.783 14.9823 298.692 14.9003C298.601 14.8182 298.555 14.6952 298.555 14.5311C298.555 14.3716 298.603 14.2531 298.699 14.1757C298.794 14.0982 298.938 14.0594 299.129 14.0594H301.214V9.67761H299.881C299.694 9.67761 299.551 9.6366 299.451 9.55457C299.355 9.46798 299.307 9.34493 299.307 9.18542C299.307 9.02592 299.353 8.90743 299.444 8.82996C299.535 8.74792 299.672 8.70691 299.854 8.70691H301.857C301.98 8.70691 302.076 8.73197 302.144 8.7821C302.217 8.83223 302.253 8.90059 302.253 8.98718V14.0594ZM307.483 14.0594V9.67761H307.353C307.043 9.67761 306.829 9.64115 306.71 9.56824C306.597 9.49532 306.54 9.36772 306.54 9.18542C306.54 9.01681 306.587 8.89604 306.683 8.82312C306.779 8.74565 306.934 8.70691 307.148 8.70691H307.469H308.125C308.249 8.70691 308.344 8.73197 308.413 8.7821C308.481 8.83223 308.515 8.90059 308.515 8.98718V9.45203C308.848 9.14213 309.176 8.91427 309.5 8.76843C309.828 8.61804 310.167 8.54285 310.518 8.54285C311.206 8.54285 311.746 8.75704 312.138 9.18542C312.535 9.61381 312.733 10.2063 312.733 10.9628V14.0594H313.054C313.282 14.0594 313.446 14.0982 313.546 14.1757C313.647 14.2486 313.697 14.3671 313.697 14.5311C313.697 14.7089 313.642 14.8365 313.533 14.9139C313.428 14.9869 313.239 15.0233 312.965 15.0233H311.455C311.163 15.0233 310.976 14.9891 310.894 14.9208C310.812 14.8524 310.771 14.7225 310.771 14.5311C310.771 14.3534 310.819 14.2303 310.915 14.162C311.01 14.0936 311.19 14.0594 311.455 14.0594H311.694V11.2157C311.694 10.6825 311.573 10.2769 311.332 9.9989C311.09 9.71635 310.739 9.57507 310.279 9.57507C309.814 9.57507 309.404 9.7323 309.048 10.0468C308.693 10.3612 308.515 10.7509 308.515 11.2157V14.0594H308.754C309.028 14.0594 309.212 14.0936 309.308 14.162C309.404 14.2303 309.452 14.3534 309.452 14.5311C309.452 14.7225 309.411 14.8524 309.329 14.9208C309.247 14.9891 309.046 15.0233 308.727 15.0233H307.483H307.114C306.927 15.0233 306.786 14.9846 306.69 14.9071C306.599 14.8251 306.553 14.6997 306.553 14.5311C306.553 14.3488 306.606 14.2258 306.71 14.162C306.82 14.0936 307.029 14.0594 307.339 14.0594H307.483ZM318.243 9.71863C317.646 9.71863 317.158 9.9032 316.78 10.2723C316.402 10.6415 316.212 11.12 316.212 11.7079C316.212 12.2867 316.402 12.7629 316.78 13.1366C317.158 13.5057 317.646 13.6903 318.243 13.6903C318.835 13.6903 319.32 13.5057 319.699 13.1366C320.082 12.7629 320.273 12.2867 320.273 11.7079C320.273 11.1291 320.082 10.6529 319.699 10.2792C319.32 9.90548 318.835 9.71863 318.243 9.71863ZM321.209 14.661C321.209 15.299 321.178 15.7502 321.114 16.0145C321.05 16.2834 320.941 16.5181 320.786 16.7186C320.53 17.0559 320.173 17.3111 319.712 17.4843C319.252 17.662 318.71 17.7509 318.085 17.7509C317.566 17.7509 317.185 17.7007 316.944 17.6005C316.707 17.5002 316.588 17.3407 316.588 17.1219C316.588 16.9807 316.645 16.8553 316.759 16.746C316.878 16.6412 317.017 16.5887 317.176 16.5887C317.299 16.5887 317.488 16.6047 317.744 16.6366C317.999 16.6731 318.193 16.6913 318.325 16.6913C318.999 16.6913 319.478 16.5363 319.76 16.2264C320.043 15.9165 320.184 15.3856 320.184 14.6337V13.8065C319.906 14.1301 319.598 14.3671 319.261 14.5175C318.924 14.6678 318.537 14.743 318.099 14.743C317.247 14.743 316.541 14.4605 315.98 13.8954C315.424 13.3257 315.146 12.6057 315.146 11.7352C315.146 10.8602 315.433 10.1356 316.007 9.5614C316.582 8.98263 317.292 8.69324 318.14 8.69324C318.491 8.69324 318.833 8.75932 319.166 8.89148C319.503 9.01908 319.842 9.21505 320.184 9.47937V8.98718C320.184 8.89148 320.214 8.82084 320.273 8.77527C320.337 8.7297 320.435 8.70691 320.567 8.70691H321.599C321.781 8.70691 321.918 8.74792 322.009 8.82996C322.1 8.90743 322.146 9.02592 322.146 9.18542C322.146 9.36772 322.089 9.49532 321.975 9.56824C321.861 9.64115 321.647 9.67761 321.333 9.67761H321.209V14.661ZM323.862 14.5311V13.3143C323.862 13.1138 323.898 12.9703 323.971 12.8837C324.049 12.7971 324.172 12.7538 324.34 12.7538C324.527 12.7538 324.675 12.8814 324.785 13.1366C324.858 13.2915 324.924 13.4078 324.983 13.4852C325.174 13.7313 325.457 13.9296 325.831 14.08C326.204 14.2258 326.617 14.2987 327.068 14.2987C327.551 14.2987 327.938 14.2007 328.23 14.0048C328.522 13.8088 328.667 13.5513 328.667 13.2323C328.667 12.9087 328.549 12.6786 328.312 12.5419C328.08 12.4052 327.679 12.3368 327.109 12.3368H326.733C325.803 12.3368 325.095 12.175 324.607 11.8514C324.119 11.5279 323.875 11.0585 323.875 10.4432C323.875 9.84167 324.112 9.37455 324.586 9.04187C325.065 8.70919 325.735 8.54285 326.596 8.54285C326.947 8.54285 327.305 8.59298 327.669 8.69324C328.034 8.78894 328.225 8.83679 328.244 8.83679C328.294 8.83679 328.389 8.7935 328.531 8.70691C328.672 8.61576 328.811 8.57019 328.948 8.57019C329.103 8.57019 329.217 8.62716 329.29 8.74109C329.367 8.85502 329.406 9.02592 329.406 9.25378V10.0536C329.406 10.2951 329.369 10.4706 329.296 10.58C329.223 10.6848 329.107 10.7372 328.948 10.7372C328.811 10.7372 328.642 10.621 328.442 10.3885C328.301 10.229 328.184 10.1083 328.093 10.0262C327.852 9.80294 327.594 9.64343 327.321 9.54773C327.047 9.44747 326.726 9.39734 326.357 9.39734C325.929 9.39734 325.582 9.49304 325.318 9.68445C325.058 9.8713 324.928 10.1106 324.928 10.4022C324.928 10.6893 325.063 10.8944 325.332 11.0175C325.6 11.1405 326.179 11.2111 327.068 11.2294C328.016 11.2522 328.708 11.4185 329.146 11.7284C329.583 12.0337 329.802 12.5077 329.802 13.1503C329.802 13.7655 329.561 14.2577 329.078 14.6268C328.595 14.996 327.943 15.1805 327.123 15.1805C326.863 15.1805 326.573 15.1555 326.254 15.1053C325.935 15.0598 325.534 14.98 325.051 14.8661C324.892 14.9709 324.755 15.0484 324.641 15.0985C324.527 15.1532 324.431 15.1805 324.354 15.1805C324.194 15.1805 324.071 15.1259 323.985 15.0165C323.903 14.9025 323.862 14.7408 323.862 14.5311Z" fill="white"/>
<rect y="0.438049" width="245" height="21.0804" fill="#919191"/>
<rect y="0.438049" width="96.04" height="21.0811" fill="#FF8A00"/>
<path d="M145.149 10.7083C145.683 10.8541 146.095 11.1207 146.387 11.5081C146.683 11.8909 146.831 12.3603 146.831 12.9163C146.831 13.7138 146.549 14.3678 145.983 14.8782C145.418 15.3841 144.687 15.637 143.789 15.637C143.096 15.637 142.479 15.5049 141.937 15.2405C141.399 14.9717 141.13 14.6777 141.13 14.3587C141.13 14.222 141.178 14.1103 141.273 14.0237C141.374 13.9326 141.494 13.887 141.636 13.887C141.713 13.887 141.993 14.0032 142.477 14.2357C142.964 14.4681 143.418 14.5843 143.837 14.5843C144.379 14.5843 144.819 14.4293 145.156 14.1194C145.498 13.8095 145.669 13.4085 145.669 12.9163C145.669 12.5107 145.55 12.1689 145.313 11.8909C145.081 11.6084 144.76 11.4284 144.35 11.3509C144.227 11.3281 144.065 11.3099 143.864 11.2962C143.481 11.2734 143.29 11.1139 143.29 10.8177C143.29 10.5488 143.477 10.3916 143.851 10.346C143.996 10.3323 144.117 10.3164 144.213 10.2982C144.568 10.2435 144.855 10.0976 145.074 9.86066C145.293 9.62368 145.402 9.33657 145.402 8.99933C145.402 8.56639 145.268 8.2132 144.999 7.93976C144.73 7.66632 144.388 7.5296 143.974 7.5296C143.591 7.5296 143.197 7.64809 142.791 7.88507C142.39 8.12205 142.139 8.24054 142.039 8.24054C141.911 8.24054 141.804 8.19952 141.718 8.11749C141.636 8.03546 141.595 7.93292 141.595 7.80988C141.595 7.53188 141.85 7.25616 142.36 6.98273C142.871 6.70473 143.436 6.56573 144.056 6.56573C144.767 6.56573 145.357 6.78221 145.826 7.21515C146.3 7.64353 146.537 8.17218 146.537 8.80109C146.537 9.2796 146.423 9.67381 146.195 9.9837C145.972 10.2936 145.623 10.5351 145.149 10.7083ZM152.491 7.54327C151.967 7.54327 151.559 7.85317 151.268 8.47296C150.976 9.09275 150.83 9.96775 150.83 11.098C150.83 12.2327 150.976 13.1123 151.268 13.7366C151.559 14.3564 151.967 14.6663 152.491 14.6663C153.02 14.6663 153.43 14.3564 153.722 13.7366C154.013 13.1123 154.159 12.2327 154.159 11.098C154.159 9.96775 154.013 9.09275 153.722 8.47296C153.43 7.85317 153.02 7.54327 152.491 7.54327ZM152.491 15.637C151.634 15.637 150.953 15.2337 150.447 14.4271C149.946 13.6159 149.695 12.5062 149.695 11.098C149.695 9.69432 149.946 8.58917 150.447 7.78253C150.953 6.97133 151.634 6.56573 152.491 6.56573C153.348 6.56573 154.029 6.97133 154.535 7.78253C155.041 8.59373 155.294 9.69887 155.294 11.098C155.294 12.497 155.041 13.6045 154.535 14.4202C154.029 15.2314 153.348 15.637 152.491 15.637ZM166.382 15.4114H166.061C165.896 15.4114 165.771 15.3704 165.685 15.2884C165.603 15.2064 165.562 15.0833 165.562 14.9193C165.562 14.737 165.609 14.6139 165.705 14.5501C165.805 14.4818 166.031 14.4476 166.382 14.4476H166.819V8.28839H166.382C166.04 8.28839 165.817 8.25421 165.712 8.18585C165.612 8.11294 165.562 7.98305 165.562 7.7962C165.562 7.62758 165.603 7.50454 165.685 7.42706C165.771 7.34503 165.901 7.30402 166.074 7.30402H166.382H172.028C172.183 7.30402 172.299 7.35187 172.377 7.44757C172.459 7.53872 172.5 7.67316 172.5 7.85089V9.46417C172.5 9.70115 172.466 9.86521 172.397 9.95636C172.329 10.0475 172.206 10.0931 172.028 10.0931C171.841 10.0931 171.712 10.0429 171.639 9.94269C171.57 9.84243 171.536 9.61684 171.536 9.26593V8.28839H167.899V10.5921H169.69V10.2298C169.69 9.9837 169.722 9.81281 169.786 9.7171C169.854 9.6214 169.971 9.57355 170.135 9.57355C170.294 9.57355 170.404 9.62596 170.463 9.73077C170.527 9.83103 170.559 10.0498 170.559 10.387V11.6585C170.559 12.0003 170.527 12.2191 170.463 12.3148C170.399 12.4105 170.285 12.4583 170.121 12.4583C169.957 12.4583 169.843 12.4036 169.779 12.2943C169.72 12.1849 169.69 11.973 169.69 11.6585V11.4193H167.899V14.4476H171.536V13.3401C171.536 12.9892 171.57 12.7637 171.639 12.6634C171.712 12.5631 171.841 12.513 172.028 12.513C172.201 12.513 172.322 12.5609 172.391 12.6566C172.464 12.7477 172.5 12.9232 172.5 13.1829V14.9056C172.5 15.0696 172.459 15.195 172.377 15.2816C172.295 15.3681 172.179 15.4114 172.028 15.4114H166.382ZM177.258 7.44757H176.096C175.654 7.44757 175.376 7.41339 175.262 7.34503C175.152 7.27212 175.098 7.14223 175.098 6.95538C175.098 6.79132 175.143 6.66827 175.234 6.58624C175.33 6.50421 175.467 6.4632 175.645 6.4632H177.9C178.023 6.4632 178.119 6.48826 178.188 6.53839C178.256 6.58852 178.29 6.65688 178.29 6.74347V14.4476H180.437C180.61 14.4476 180.735 14.4863 180.812 14.5638C180.895 14.6367 180.936 14.7552 180.936 14.9193C180.936 15.1061 180.897 15.236 180.819 15.3089C180.742 15.3773 180.596 15.4114 180.382 15.4114H175.337C175.159 15.4114 175.022 15.3704 174.927 15.2884C174.836 15.2064 174.79 15.0833 174.79 14.9193C174.79 14.7597 174.838 14.6413 174.934 14.5638C175.029 14.4863 175.173 14.4476 175.364 14.4476H177.258V7.44757ZM183.813 12.554C183.85 13.2103 184.071 13.7184 184.477 14.0784C184.887 14.4339 185.445 14.6116 186.151 14.6116C186.685 14.6116 187.266 14.4704 187.895 14.1878C188.523 13.9007 188.904 13.7571 189.036 13.7571C189.173 13.7571 189.287 13.8004 189.378 13.887C189.469 13.9736 189.515 14.0807 189.515 14.2083C189.515 14.3405 189.467 14.4612 189.371 14.5706C189.275 14.68 189.123 14.7871 188.913 14.8919C188.457 15.1152 187.986 15.2861 187.498 15.4046C187.015 15.5231 186.534 15.5823 186.056 15.5823C185.017 15.5823 184.185 15.2838 183.561 14.6868C182.936 14.0853 182.624 13.29 182.624 12.3011C182.624 11.2939 182.954 10.4782 183.615 9.85382C184.276 9.22947 185.137 8.9173 186.199 8.9173C187.161 8.9173 187.958 9.20896 188.592 9.7923C189.225 10.3756 189.542 11.082 189.542 11.9114C189.542 12.1666 189.487 12.3375 189.378 12.4241C189.273 12.5107 188.984 12.554 188.51 12.554H188.407H183.813ZM183.848 11.6585H188.298C188.229 11.1162 188.002 10.681 187.614 10.3528C187.231 10.0202 186.76 9.85382 186.199 9.85382C185.593 9.85382 185.083 10.0133 184.668 10.3323C184.253 10.6513 183.98 11.0934 183.848 11.6585ZM197.068 11.6038C197.068 10.9612 197.009 10.5283 196.891 10.305C196.777 10.0771 196.578 9.9632 196.296 9.9632C195.959 9.9632 195.69 10.109 195.489 10.4007C195.293 10.6924 195.195 11.0934 195.195 11.6038V14.4476H195.318C195.596 14.4476 195.781 14.4818 195.872 14.5501C195.968 14.6139 196.016 14.737 196.016 14.9193C196.016 15.0833 195.977 15.2064 195.899 15.2884C195.822 15.3704 195.703 15.4114 195.544 15.4114H194.676C194.48 15.4114 194.345 15.3659 194.272 15.2747C194.204 15.1836 194.17 14.9876 194.17 14.6868V14.4886V11.6038V11.0706C194.17 10.7288 194.092 10.4599 193.938 10.264C193.783 10.0635 193.571 9.9632 193.302 9.9632C193.097 9.9632 192.908 10.0247 192.734 10.1478C192.566 10.2663 192.42 10.444 192.297 10.681V14.4476H192.55C192.823 14.4476 193.008 14.4818 193.104 14.5501C193.199 14.6185 193.247 14.7415 193.247 14.9193C193.247 15.1061 193.208 15.236 193.131 15.3089C193.053 15.3773 192.905 15.4114 192.687 15.4114H190.868C190.69 15.4114 190.558 15.3727 190.472 15.2952C190.39 15.2132 190.349 15.0879 190.349 14.9193C190.349 14.737 190.401 14.6139 190.506 14.5501C190.615 14.4818 190.825 14.4476 191.135 14.4476H191.271V10.0657H191.148C190.829 10.0657 190.611 10.0293 190.492 9.95636C190.378 9.88344 190.321 9.75584 190.321 9.57355C190.321 9.41404 190.367 9.29555 190.458 9.21808C190.549 9.13605 190.686 9.09503 190.868 9.09503H191.914C192.064 9.09503 192.162 9.12238 192.208 9.17706C192.258 9.22719 192.288 9.33657 192.297 9.50519C192.484 9.30467 192.684 9.15656 192.898 9.06085C193.113 8.96515 193.354 8.9173 193.623 8.9173C193.942 8.9173 194.204 8.98794 194.409 9.12921C194.619 9.26593 194.774 9.47557 194.874 9.75812C195.065 9.47101 195.286 9.25909 195.537 9.12238C195.788 8.98566 196.075 8.9173 196.398 8.9173C196.986 8.9173 197.415 9.1087 197.684 9.49152C197.957 9.87433 198.094 10.4941 198.094 11.3509V14.4476H198.203C198.486 14.4476 198.675 14.4818 198.771 14.5501C198.866 14.6185 198.914 14.7415 198.914 14.9193C198.914 15.0833 198.873 15.2064 198.791 15.2884C198.709 15.3704 198.588 15.4114 198.429 15.4114H197.602C197.419 15.4114 197.285 15.3568 197.198 15.2474C197.112 15.138 197.068 14.9648 197.068 14.7278V11.6038ZM200.63 12.554C200.666 13.2103 200.887 13.7184 201.293 14.0784C201.703 14.4339 202.261 14.6116 202.968 14.6116C203.501 14.6116 204.082 14.4704 204.711 14.1878C205.34 13.9007 205.72 13.7571 205.853 13.7571C205.989 13.7571 206.103 13.8004 206.194 13.887C206.285 13.9736 206.331 14.0807 206.331 14.2083C206.331 14.3405 206.283 14.4612 206.188 14.5706C206.092 14.68 205.939 14.7871 205.729 14.8919C205.274 15.1152 204.802 15.2861 204.314 15.4046C203.831 15.5231 203.351 15.5823 202.872 15.5823C201.833 15.5823 201.001 15.2838 200.377 14.6868C199.753 14.0853 199.44 13.29 199.44 12.3011C199.44 11.2939 199.771 10.4782 200.432 9.85382C201.092 9.22947 201.954 8.9173 203.016 8.9173C203.977 8.9173 204.775 9.20896 205.408 9.7923C206.042 10.3756 206.358 11.082 206.358 11.9114C206.358 12.1666 206.304 12.3375 206.194 12.4241C206.09 12.5107 205.8 12.554 205.326 12.554H205.224H200.63ZM200.664 11.6585H205.114C205.046 11.1162 204.818 10.681 204.431 10.3528C204.048 10.0202 203.576 9.85382 203.016 9.85382C202.41 9.85382 201.899 10.0133 201.484 10.3323C201.07 10.6513 200.796 11.0934 200.664 11.6585ZM208.806 14.4476V10.0657H208.676C208.366 10.0657 208.152 10.0293 208.033 9.95636C207.919 9.88344 207.862 9.75584 207.862 9.57355C207.862 9.40493 207.91 9.28416 208.006 9.21124C208.102 9.13377 208.257 9.09503 208.471 9.09503H208.792H209.448C209.571 9.09503 209.667 9.1201 209.735 9.17023C209.804 9.22036 209.838 9.28872 209.838 9.37531V9.84015C210.171 9.53025 210.499 9.30239 210.822 9.15656C211.15 9.00616 211.49 8.93097 211.841 8.93097C212.529 8.93097 213.069 9.14516 213.461 9.57355C213.857 10.0019 214.056 10.5944 214.056 11.3509V14.4476H214.377C214.605 14.4476 214.769 14.4863 214.869 14.5638C214.969 14.6367 215.02 14.7552 215.02 14.9193C215.02 15.097 214.965 15.2246 214.855 15.3021C214.751 15.375 214.562 15.4114 214.288 15.4114H212.777C212.486 15.4114 212.299 15.3773 212.217 15.3089C212.135 15.2405 212.094 15.1107 212.094 14.9193C212.094 14.7415 212.142 14.6185 212.237 14.5501C212.333 14.4818 212.513 14.4476 212.777 14.4476H213.017V11.6038C213.017 11.0706 212.896 10.665 212.654 10.387C212.413 10.1045 212.062 9.9632 211.602 9.9632C211.137 9.9632 210.727 10.1204 210.371 10.4349C210.016 10.7493 209.838 11.139 209.838 11.6038V14.4476H210.077C210.351 14.4476 210.535 14.4818 210.631 14.5501C210.727 14.6185 210.774 14.7415 210.774 14.9193C210.774 15.1107 210.733 15.2405 210.651 15.3089C210.569 15.3773 210.369 15.4114 210.05 15.4114H208.806H208.437C208.25 15.4114 208.108 15.3727 208.013 15.2952C207.922 15.2132 207.876 15.0879 207.876 14.9193C207.876 14.737 207.928 14.6139 208.033 14.5501C208.143 14.4818 208.352 14.4476 208.662 14.4476H208.806ZM221.623 9.47784C221.846 9.47784 222.008 9.51658 222.108 9.59406C222.213 9.67153 222.266 9.79458 222.266 9.9632C222.266 10.1227 222.218 10.2435 222.122 10.3255C222.026 10.403 221.883 10.4417 221.691 10.4417H218.923V12.7249C218.923 13.4723 219.019 13.9645 219.21 14.2015C219.406 14.4385 219.739 14.5569 220.208 14.5569C220.623 14.5569 221.119 14.4362 221.698 14.1946C222.277 13.9531 222.635 13.8323 222.771 13.8323C222.899 13.8323 223.006 13.8779 223.093 13.9691C223.184 14.0602 223.229 14.1719 223.229 14.304C223.229 14.4544 223.173 14.5866 223.059 14.7005C222.949 14.8099 222.76 14.917 222.491 15.0218C222.045 15.1995 221.641 15.3294 221.281 15.4114C220.926 15.4935 220.591 15.5345 220.276 15.5345C219.743 15.5345 219.294 15.4502 218.93 15.2816C218.57 15.1084 218.301 14.8532 218.123 14.5159C218.032 14.3564 217.966 14.1673 217.925 13.9485C217.888 13.7298 217.87 13.3926 217.87 12.9368V12.7249V10.4417H216.708C216.517 10.4417 216.378 10.4053 216.291 10.3323C216.204 10.2549 216.161 10.1318 216.161 9.9632C216.161 9.77635 216.22 9.64874 216.339 9.58038C216.457 9.51202 216.71 9.47784 217.098 9.47784H217.87V8.07648V7.71417C217.87 7.51821 217.911 7.37465 217.993 7.28351C218.08 7.18781 218.212 7.13995 218.39 7.13995C218.59 7.13995 218.729 7.19692 218.807 7.31085C218.884 7.42478 218.923 7.68455 218.923 8.09015V9.47784H221.623ZM225.185 14.9193V13.7025C225.185 13.5019 225.221 13.3584 225.294 13.2718C225.371 13.1852 225.494 13.1419 225.663 13.1419C225.85 13.1419 225.998 13.2695 226.107 13.5247C226.18 13.6797 226.246 13.7959 226.306 13.8734C226.497 14.1194 226.78 14.3177 227.153 14.4681C227.527 14.6139 227.939 14.6868 228.391 14.6868C228.874 14.6868 229.261 14.5888 229.553 14.3929C229.844 14.1969 229.99 13.9394 229.99 13.6204C229.99 13.2969 229.872 13.0667 229.635 12.93C229.402 12.7933 229.001 12.7249 228.432 12.7249H228.056C227.126 12.7249 226.417 12.5631 225.93 12.2396C225.442 11.916 225.198 11.4466 225.198 10.8314C225.198 10.2298 225.435 9.76267 225.909 9.42999C226.388 9.09731 227.058 8.93097 227.919 8.93097C228.27 8.93097 228.628 8.9811 228.992 9.08136C229.357 9.17706 229.548 9.22491 229.566 9.22491C229.617 9.22491 229.712 9.18162 229.854 9.09503C229.995 9.00389 230.134 8.95831 230.271 8.95831C230.425 8.95831 230.539 9.01528 230.612 9.12921C230.69 9.24314 230.729 9.41404 230.729 9.64191V10.4417C230.729 10.6832 230.692 10.8587 230.619 10.9681C230.546 11.0729 230.43 11.1253 230.271 11.1253C230.134 11.1253 229.965 11.0091 229.765 10.7767C229.623 10.6172 229.507 10.4964 229.416 10.4144C229.174 10.1911 228.917 10.0316 228.644 9.93585C228.37 9.83559 228.049 9.78546 227.68 9.78546C227.251 9.78546 226.905 9.88116 226.641 10.0726C226.381 10.2594 226.251 10.4987 226.251 10.7903C226.251 11.0775 226.385 11.2825 226.654 11.4056C226.923 11.5286 227.502 11.5993 228.391 11.6175C229.339 11.6403 230.031 11.8066 230.469 12.1165C230.906 12.4219 231.125 12.8958 231.125 13.5384C231.125 14.1536 230.883 14.6458 230.4 15.015C229.917 15.3841 229.266 15.5687 228.445 15.5687C228.186 15.5687 227.896 15.5436 227.577 15.4935C227.258 15.4479 226.857 15.3681 226.374 15.2542C226.215 15.359 226.078 15.4365 225.964 15.4866C225.85 15.5413 225.754 15.5687 225.677 15.5687C225.517 15.5687 225.394 15.514 225.308 15.4046C225.226 15.2907 225.185 15.1289 225.185 14.9193Z" fill="white"/>
<path d="M10.8364 7.90027V11.0721H12.1147C12.8302 11.0721 13.3657 10.94 13.7212 10.6757C14.0767 10.4113 14.2544 10.0126 14.2544 9.47937C14.2544 8.95528 14.0744 8.56108 13.7144 8.29675C13.3589 8.03243 12.8257 7.90027 12.1147 7.90027H10.8364ZM12.2651 14.0594C12.4884 14.0594 12.6502 14.0982 12.7505 14.1757C12.8507 14.2486 12.9009 14.3671 12.9009 14.5311C12.9009 14.7134 12.853 14.841 12.7573 14.9139C12.6616 14.9869 12.4793 15.0233 12.2104 15.0233H8.86768C8.71273 15.0233 8.59424 14.9823 8.51221 14.9003C8.43018 14.8137 8.38916 14.6906 8.38916 14.5311C8.38916 14.3716 8.4279 14.2531 8.50537 14.1757C8.5874 14.0982 8.71273 14.0594 8.88135 14.0594H9.76318V7.90027H9.28467C8.88363 7.90027 8.63298 7.86609 8.53271 7.79773C8.43701 7.72481 8.38916 7.59493 8.38916 7.40808C8.38916 7.24858 8.43018 7.12781 8.51221 7.04578C8.59424 6.95919 8.71273 6.91589 8.86768 6.91589H12.0327C13.1401 6.91589 13.981 7.13009 14.5552 7.55847C15.1294 7.98686 15.4165 8.61804 15.4165 9.45203C15.4165 10.286 15.1317 10.9149 14.562 11.3387C13.9924 11.7626 13.1493 11.9745 12.0327 11.9745H10.8364V14.0594H12.2651ZM17.8228 14.0594V7.05945H17.6929C17.383 7.05945 17.1688 7.02299 17.0503 6.95007C16.9364 6.87716 16.8794 6.74955 16.8794 6.56726C16.8794 6.4032 16.925 6.28015 17.0161 6.19812C17.1118 6.11609 17.2485 6.07507 17.4263 6.07507H18.4653C18.5884 6.07507 18.6841 6.10014 18.7524 6.15027C18.8208 6.2004 18.855 6.26876 18.855 6.35535V9.45203C19.1877 9.14213 19.5158 8.91427 19.8394 8.76843C20.1675 8.61804 20.507 8.54285 20.8579 8.54285C21.5461 8.54285 22.0861 8.75704 22.478 9.18542C22.8745 9.61381 23.0728 10.2063 23.0728 10.9628V14.0594H23.394C23.6219 14.0594 23.786 14.0982 23.8862 14.1757C23.9865 14.2486 24.0366 14.3671 24.0366 14.5311C24.0366 14.6952 23.991 14.8182 23.8999 14.9003C23.8088 14.9823 23.672 15.0233 23.4897 15.0233H21.6714C21.4572 15.0233 21.3114 14.9891 21.2339 14.9208C21.161 14.8479 21.1245 14.718 21.1245 14.5311C21.1245 14.3488 21.1701 14.2258 21.2612 14.162C21.3569 14.0936 21.5347 14.0594 21.7944 14.0594H22.0337V11.2157C22.0337 10.6825 21.9129 10.2769 21.6714 9.9989C21.4299 9.71635 21.0789 9.57507 20.6187 9.57507C20.1493 9.57507 19.7368 9.7323 19.3813 10.0468C19.0304 10.3612 18.855 10.7509 18.855 11.2157V14.0594H19.0942C19.3677 14.0594 19.5522 14.0936 19.6479 14.162C19.7437 14.2303 19.7915 14.3534 19.7915 14.5311C19.7915 14.718 19.7528 14.8479 19.6753 14.9208C19.6024 14.9891 19.4588 15.0233 19.2446 15.0233H17.4263C17.2485 15.0233 17.1141 14.9823 17.0229 14.9003C16.9364 14.8182 16.8931 14.6952 16.8931 14.5311C16.8931 14.3488 16.9455 14.2258 17.0503 14.162C17.1597 14.0936 17.3693 14.0594 17.6792 14.0594H17.8228ZM28.8013 14.2372C29.5031 14.2372 30.0773 14.0162 30.5239 13.5741C30.9751 13.1275 31.2007 12.5601 31.2007 11.8719C31.2007 11.1838 30.9751 10.6164 30.5239 10.1698C30.0728 9.71863 29.4985 9.49304 28.8013 9.49304C28.104 9.49304 27.5298 9.71863 27.0786 10.1698C26.632 10.6164 26.4087 11.1838 26.4087 11.8719C26.4087 12.5647 26.632 13.132 27.0786 13.5741C27.5252 14.0162 28.0994 14.2372 28.8013 14.2372ZM32.3901 11.8719C32.3901 12.8472 32.0575 13.6447 31.3921 14.2645C30.7267 14.8843 29.8631 15.1942 28.8013 15.1942C27.744 15.1942 26.8826 14.8843 26.2173 14.2645C25.5519 13.6447 25.2192 12.8472 25.2192 11.8719C25.2192 10.8967 25.5519 10.1014 26.2173 9.48621C26.8826 8.86641 27.744 8.55652 28.8013 8.55652C29.8586 8.55652 30.7199 8.86641 31.3853 9.48621C32.0552 10.106 32.3901 10.9012 32.3901 11.8719ZM39.0757 9.08972C39.299 9.08972 39.4608 9.12846 39.561 9.20593C39.6659 9.28341 39.7183 9.40645 39.7183 9.57507C39.7183 9.73458 39.6704 9.85535 39.5747 9.93738C39.479 10.0149 39.3354 10.0536 39.144 10.0536H36.3755V12.3368C36.3755 13.0842 36.4712 13.5764 36.6626 13.8134C36.8586 14.0503 37.1912 14.1688 37.6606 14.1688C38.0754 14.1688 38.5721 14.0481 39.1509 13.8065C39.7297 13.565 40.0874 13.4442 40.2241 13.4442C40.3517 13.4442 40.4588 13.4898 40.5454 13.5809C40.6366 13.6721 40.6821 13.7837 40.6821 13.9159C40.6821 14.0663 40.6252 14.1984 40.5112 14.3124C40.4019 14.4218 40.2127 14.5288 39.9438 14.6337C39.4972 14.8114 39.0939 14.9413 38.7339 15.0233C38.3784 15.1053 38.0435 15.1464 37.729 15.1464C37.1958 15.1464 36.7469 15.0621 36.3823 14.8934C36.0223 14.7203 35.7534 14.465 35.5757 14.1278C35.4845 13.9683 35.4185 13.7792 35.3774 13.5604C35.341 13.3417 35.3228 13.0044 35.3228 12.5487V12.3368V10.0536H34.1606C33.9692 10.0536 33.8302 10.0171 33.7437 9.94421C33.6571 9.86674 33.6138 9.74369 33.6138 9.57507C33.6138 9.38822 33.673 9.26062 33.7915 9.19226C33.91 9.1239 34.1629 9.08972 34.5503 9.08972H35.3228V7.68835V7.32605C35.3228 7.13009 35.3638 6.98653 35.4458 6.89539C35.5324 6.79968 35.6646 6.75183 35.8423 6.75183C36.0428 6.75183 36.1818 6.8088 36.2593 6.92273C36.3368 7.03666 36.3755 7.29643 36.3755 7.70203V9.08972H39.0757ZM45.6177 14.2372C46.3195 14.2372 46.8937 14.0162 47.3403 13.5741C47.7915 13.1275 48.0171 12.5601 48.0171 11.8719C48.0171 11.1838 47.7915 10.6164 47.3403 10.1698C46.8892 9.71863 46.3149 9.49304 45.6177 9.49304C44.9204 9.49304 44.3462 9.71863 43.895 10.1698C43.4484 10.6164 43.2251 11.1838 43.2251 11.8719C43.2251 12.5647 43.4484 13.132 43.895 13.5741C44.3416 14.0162 44.9159 14.2372 45.6177 14.2372ZM49.2065 11.8719C49.2065 12.8472 48.8739 13.6447 48.2085 14.2645C47.5431 14.8843 46.6795 15.1942 45.6177 15.1942C44.5604 15.1942 43.6991 14.8843 43.0337 14.2645C42.3683 13.6447 42.0356 12.8472 42.0356 11.8719C42.0356 10.8967 42.3683 10.1014 43.0337 9.48621C43.6991 8.86641 44.5604 8.55652 45.6177 8.55652C46.675 8.55652 47.5363 8.86641 48.2017 9.48621C48.8716 10.106 49.2065 10.9012 49.2065 11.8719ZM51.0454 14.5311V13.3143C51.0454 13.1138 51.0819 12.9703 51.1548 12.8837C51.2323 12.7971 51.3553 12.7538 51.5239 12.7538C51.7108 12.7538 51.8589 12.8814 51.9683 13.1366C52.0412 13.2915 52.1073 13.4078 52.1665 13.4852C52.3579 13.7313 52.6405 13.9296 53.0142 14.08C53.3879 14.2258 53.8003 14.2987 54.2515 14.2987C54.7345 14.2987 55.1219 14.2007 55.4136 14.0048C55.7052 13.8088 55.8511 13.5513 55.8511 13.2323C55.8511 12.9087 55.7326 12.6786 55.4956 12.5419C55.2632 12.4052 54.8621 12.3368 54.2925 12.3368H53.9165C52.9868 12.3368 52.2782 12.175 51.7905 11.8514C51.3029 11.5279 51.0591 11.0585 51.0591 10.4432C51.0591 9.84167 51.2961 9.37455 51.77 9.04187C52.2485 8.70919 52.9185 8.54285 53.7798 8.54285C54.1307 8.54285 54.4884 8.59298 54.853 8.69324C55.2176 8.78894 55.409 8.83679 55.4272 8.83679C55.4774 8.83679 55.5731 8.7935 55.7144 8.70691C55.8556 8.61576 55.9946 8.57019 56.1313 8.57019C56.2863 8.57019 56.4002 8.62716 56.4731 8.74109C56.5506 8.85502 56.5894 9.02592 56.5894 9.25378V10.0536C56.5894 10.2951 56.5529 10.4706 56.48 10.58C56.4071 10.6848 56.2909 10.7372 56.1313 10.7372C55.9946 10.7372 55.826 10.621 55.6255 10.3885C55.4842 10.229 55.368 10.1083 55.2769 10.0262C55.0353 9.80294 54.7778 9.64343 54.5044 9.54773C54.231 9.44747 53.9097 9.39734 53.5405 9.39734C53.1121 9.39734 52.7658 9.49304 52.5015 9.68445C52.2417 9.8713 52.1118 10.1106 52.1118 10.4022C52.1118 10.6893 52.2463 10.8944 52.5151 11.0175C52.784 11.1405 53.3628 11.2111 54.2515 11.2294C55.1994 11.2522 55.8921 11.4185 56.3296 11.7284C56.7671 12.0337 56.9858 12.5077 56.9858 13.1503C56.9858 13.7655 56.7443 14.2577 56.2612 14.6268C55.7782 14.996 55.1265 15.1805 54.3062 15.1805C54.0464 15.1805 53.757 15.1555 53.438 15.1053C53.119 15.0598 52.7179 14.98 52.2349 14.8661C52.0754 14.9709 51.9386 15.0484 51.8247 15.0985C51.7108 15.1532 51.6151 15.1805 51.5376 15.1805C51.3781 15.1805 51.255 15.1259 51.1685 15.0165C51.0864 14.9025 51.0454 14.7408 51.0454 14.5311Z" fill="white"/>
</svg>
