<svg width="630" height="71" viewBox="0 0 630 71" fill="none" xmlns="http://www.w3.org/2000/svg">
<line x1="20.5" y1="28" x2="20.5" y2="45" stroke="#A7A7A7"/>
<line x1="53.5" y1="28" x2="53.5" y2="45" stroke="#A7A7A7"/>
<line x1="86.5" y1="28" x2="86.5" y2="45" stroke="#A7A7A7"/>
<line x1="120.5" y1="28" x2="120.5" y2="45" stroke="#A7A7A7"/>
<line x1="153.5" y1="28" x2="153.5" y2="45" stroke="#A7A7A7"/>
<line x1="186.5" y1="28" x2="186.5" y2="45" stroke="#A7A7A7"/>
<line x1="219.5" y1="28" x2="219.5" y2="45" stroke="#A7A7A7"/>
<line x1="253.5" y1="23" x2="253.5" y2="45" stroke="#A7A7A7"/>
<line x1="286.5" y1="23" x2="286.5" y2="45" stroke="#A7A7A7"/>
<line x1="319.5" y1="28" x2="319.5" y2="45" stroke="#A7A7A7"/>
<line x1="352.5" y1="28" x2="352.5" y2="45" stroke="#A7A7A7"/>
<line x1="386.5" y1="28" x2="386.5" y2="45" stroke="#5E5E5E"/>
<line x1="419.5" y1="21" x2="419.5" y2="45" stroke="#5E5E5E"/>
<line x1="469.5" y1="21" x2="469.5" y2="45" stroke="#5E5E5E"/>
<line x1="519.5" y1="21" x2="519.5" y2="45" stroke="#5E5E5E"/>
<line x1="568.5" y1="21" x2="568.5" y2="45" stroke="#5E5E5E"/>
<line x1="28.5" y1="20" x2="28.5" y2="45" stroke="#A7A7A7"/>
<line x1="62.5" y1="20" x2="62.5" y2="45" stroke="#A7A7A7"/>
<line x1="95.5" y1="20" x2="95.5" y2="45" stroke="#A7A7A7"/>
<line x1="128.5" y1="20" x2="128.5" y2="45" stroke="#A7A7A7"/>
<line x1="161.5" y1="20" x2="161.5" y2="45" stroke="#A7A7A7"/>
<line x1="194.5" y1="20" x2="194.5" y2="45" stroke="#A7A7A7"/>
<line x1="228.5" y1="20" x2="228.5" y2="45" stroke="#A7A7A7"/>
<line x1="261.5" y1="13" x2="261.5" y2="45" stroke="#A7A7A7"/>
<line x1="294.5" y1="13" x2="294.5" y2="45" stroke="#A7A7A7"/>
<line x1="327.5" y1="20" x2="327.5" y2="45" stroke="#A7A7A7"/>
<line x1="361.5" y1="20" x2="361.5" y2="45" stroke="#A7A7A7"/>
<line x1="394.5" y1="20" x2="394.5" y2="45" stroke="#5E5E5E"/>
<line x1="427.5" y1="10" x2="427.5" y2="45" stroke="#5E5E5E"/>
<line x1="477.5" y1="10" x2="477.5" y2="45" stroke="#5E5E5E"/>
<line x1="527.5" y1="10" x2="527.5" y2="45" stroke="#5E5E5E"/>
<line x1="577.5" y1="10" x2="577.5" y2="45" stroke="#5E5E5E"/>
<line x1="37.5" y1="30" x2="37.5" y2="45" stroke="#A7A7A7"/>
<line x1="70.5" y1="30" x2="70.5" y2="45" stroke="#A7A7A7"/>
<line x1="103.5" y1="30" x2="103.5" y2="45" stroke="#A7A7A7"/>
<line x1="136.5" y1="30" x2="136.5" y2="45" stroke="#A7A7A7"/>
<line x1="170.5" y1="30" x2="170.5" y2="45" stroke="#A7A7A7"/>
<line x1="203.5" y1="30" x2="203.5" y2="45" stroke="#A7A7A7"/>
<line x1="236.5" y1="26" x2="236.5" y2="45" stroke="#A7A7A7"/>
<line x1="269.5" y1="26" x2="269.5" y2="45" stroke="#A7A7A7"/>
<line x1="303.5" y1="26" x2="303.5" y2="45" stroke="#A7A7A7"/>
<line x1="336.5" y1="30" x2="336.5" y2="45" stroke="#A7A7A7"/>
<line x1="369.5" y1="30" x2="369.5" y2="45" stroke="#A7A7A7"/>
<line x1="402.5" y1="30" x2="402.5" y2="45" stroke="#5E5E5E"/>
<line x1="452.5" y1="30" x2="452.5" y2="45" stroke="#5E5E5E"/>
<line x1="502.5" y1="30" x2="502.5" y2="45" stroke="#5E5E5E"/>
<line x1="552.5" y1="30" x2="552.5" y2="45" stroke="#5E5E5E"/>
<line x1="435.5" y1="24" x2="435.5" y2="45" stroke="#5E5E5E"/>
<line x1="485.5" y1="24" x2="485.5" y2="45" stroke="#5E5E5E"/>
<line x1="535.5" y1="24" x2="535.5" y2="45" stroke="#5E5E5E"/>
<line x1="585.5" y1="24" x2="585.5" y2="45" stroke="#5E5E5E"/>
<line x1="45.5" y1="20" x2="45.5" y2="45" stroke="#A7A7A7"/>
<line x1="78.5" y1="20" x2="78.5" y2="45" stroke="#A7A7A7"/>
<line x1="111.5" y1="20" x2="111.5" y2="45" stroke="#A7A7A7"/>
<line x1="145.5" y1="20" x2="145.5" y2="45" stroke="#A7A7A7"/>
<line x1="178.5" y1="20" x2="178.5" y2="45" stroke="#A7A7A7"/>
<line x1="211.5" y1="20" x2="211.5" y2="45" stroke="#A7A7A7"/>
<line x1="244.5" y1="13" x2="244.5" y2="45" stroke="#A7A7A7"/>
<line x1="278.5" y1="13" x2="278.5" y2="45" stroke="#A7A7A7"/>
<line x1="311.5" y1="13" x2="311.5" y2="45" stroke="#A7A7A7"/>
<line x1="344.5" y1="20" x2="344.5" y2="45" stroke="#A7A7A7"/>
<line x1="377.5" y1="20" x2="377.5" y2="45" stroke="#A7A7A7"/>
<line x1="411.5" y1="20" x2="411.5" y2="45" stroke="#5E5E5E"/>
<line x1="460.5" y1="20" x2="460.5" y2="45" stroke="#5E5E5E"/>
<line x1="510.5" y1="20" x2="510.5" y2="45" stroke="#5E5E5E"/>
<line x1="560.5" y1="20" x2="560.5" y2="45" stroke="#5E5E5E"/>
<line x1="444.5" y1="10" x2="444.5" y2="45" stroke="#5E5E5E"/>
<line x1="494.5" y1="10" x2="494.5" y2="45" stroke="#5E5E5E"/>
<line x1="544.5" y1="10" x2="544.5" y2="45" stroke="#5E5E5E"/>
<line x1="593.5" y1="10" x2="593.5" y2="45" stroke="#5E5E5E"/>
<line x1="602.5" y1="26" x2="602.5" y2="45" stroke="#5E5E5E"/>
<path fill-rule="evenodd" clip-rule="evenodd" d="M379.5 45L379.5 5L381.5 5L381.5 45L379.5 45Z" fill="#FF8A00"/>
<rect x="375.5" width="10" height="10" fill="#FF8A00"/>
<path fill-rule="evenodd" clip-rule="evenodd" d="M12.5 44.9999L12.5 4.99994L14.5 4.99994L14.5 44.9999L12.5 44.9999Z" fill="#FF8A00"/>
<rect x="8.57532" y="0.0753174" width="9.84937" height="9.84937" fill="#FF8A00"/>
<path d="M2.56348 60.665C2.50423 60.6742 2.45866 60.681 2.42676 60.6855C2.39941 60.6901 2.37435 60.6924 2.35156 60.6924C2.21029 60.6924 2.09408 60.6536 2.00293 60.5762C1.91634 60.4941 1.87305 60.387 1.87305 60.2549C1.87305 60.1455 1.91178 60.0498 1.98926 59.9678C2.06673 59.8857 2.17839 59.8242 2.32422 59.7832L4.35449 59.2363C4.40462 59.2227 4.45247 59.2135 4.49805 59.209C4.54818 59.1999 4.59831 59.1953 4.64844 59.1953C4.73503 59.1953 4.80339 59.2363 4.85352 59.3184C4.90365 59.3958 4.92871 59.5029 4.92871 59.6396V67.0361H6.02246C6.42806 67.0361 6.68555 67.0703 6.79492 67.1387C6.9043 67.2025 6.95898 67.3255 6.95898 67.5078C6.95898 67.6719 6.91341 67.7949 6.82227 67.877C6.73112 67.959 6.5944 68 6.41211 68H2.32422C2.14193 68 2.00521 67.959 1.91406 67.877C1.82292 67.7949 1.77734 67.6719 1.77734 67.5078C1.77734 67.3255 1.83203 67.2025 1.94141 67.1387C2.05078 67.0703 2.30827 67.0361 2.71387 67.0361H3.84863V60.3574L2.56348 60.665ZM14.1641 63.8711C13.918 64.1855 13.6468 64.4202 13.3506 64.5752C13.0544 64.7301 12.7285 64.8076 12.373 64.8076C11.653 64.8076 11.04 64.5387 10.5342 64.001C10.0329 63.4587 9.78223 62.7933 9.78223 62.0049C9.78223 61.1755 10.0238 60.4941 10.5068 59.9609C10.9945 59.4232 11.6165 59.1543 12.373 59.1543C13.2663 59.1543 13.9863 59.5143 14.5332 60.2344C15.0801 60.9499 15.3535 61.9001 15.3535 63.085C15.3535 64.6481 14.9525 65.8968 14.1504 66.8311C13.3529 67.7607 12.2842 68.2256 10.9443 68.2256C10.5205 68.2256 10.238 68.1937 10.0967 68.1299C9.95996 68.0661 9.8916 67.9476 9.8916 67.7744C9.8916 67.4827 10.1628 67.3301 10.7051 67.3164C11.0651 67.3073 11.3499 67.2822 11.5596 67.2412C12.2796 67.109 12.863 66.7513 13.3096 66.168C13.7607 65.5846 14.0456 64.819 14.1641 63.8711ZM14.0205 62.0391C14.0205 61.474 13.8701 61.016 13.5693 60.665C13.2731 60.3096 12.8926 60.1318 12.4277 60.1318C11.9857 60.1318 11.6279 60.2982 11.3545 60.6309C11.0811 60.9635 10.9443 61.3988 10.9443 61.9365C10.9443 62.4925 11.0879 62.946 11.375 63.2969C11.6621 63.6432 12.0312 63.8164 12.4824 63.8164C12.9245 63.8164 13.2913 63.6501 13.583 63.3174C13.8747 62.9801 14.0205 62.554 14.0205 62.0391ZM21.5879 64.8486V60.2139L18.9971 64.8486H21.5879ZM20.8496 68C20.6309 68 20.4827 67.9658 20.4053 67.8975C20.3278 67.8245 20.2891 67.6947 20.2891 67.5078C20.2891 67.3438 20.3278 67.2253 20.4053 67.1523C20.4873 67.0749 20.6172 67.0361 20.7949 67.0361H21.5879V65.8877H18.3955C18.2816 65.8877 18.1927 65.8512 18.1289 65.7783C18.0651 65.7054 18.0332 65.6006 18.0332 65.4639V64.9922C18.0332 64.8099 18.0993 64.6185 18.2314 64.418C18.2542 64.3815 18.2725 64.3519 18.2861 64.3291L21.1709 59.4346C21.2347 59.3206 21.2871 59.2477 21.3281 59.2158C21.3691 59.1839 21.4238 59.168 21.4922 59.168C21.5195 59.168 21.5674 59.1725 21.6357 59.1816C21.654 59.1862 21.6722 59.1908 21.6904 59.1953L22.3877 59.3047C22.4515 59.3138 22.5016 59.3503 22.5381 59.4141C22.5791 59.4733 22.5996 59.5531 22.5996 59.6533V64.8486H22.9482C23.0485 64.8486 23.126 64.8099 23.1807 64.7324C23.2354 64.6504 23.2969 64.6094 23.3652 64.6094C23.4564 64.6094 23.5339 64.6436 23.5977 64.7119C23.6615 64.7803 23.6934 64.8646 23.6934 64.9648C23.6934 65.0059 23.6911 65.0446 23.6865 65.0811C23.682 65.113 23.6729 65.1471 23.6592 65.1836L23.6045 65.4639C23.5726 65.6279 23.5247 65.7396 23.4609 65.7988C23.4017 65.8581 23.306 65.8877 23.1738 65.8877H22.5996V67.0361H22.8389C23.1305 67.0361 23.3311 67.0726 23.4404 67.1455C23.5498 67.2139 23.6045 67.3346 23.6045 67.5078C23.6045 67.6719 23.5589 67.7949 23.4678 67.877C23.3766 67.959 23.2399 68 23.0576 68H20.8496ZM27.8838 62.6543C28.1846 62.5449 28.4626 62.4652 28.7178 62.415C28.973 62.3604 29.2168 62.333 29.4492 62.333C30.2467 62.333 30.9098 62.611 31.4385 63.167C31.9717 63.7184 32.2383 64.4043 32.2383 65.2246C32.2383 66.0951 31.9443 66.8128 31.3564 67.3779C30.7686 67.943 30.0166 68.2256 29.1006 68.2256C28.335 68.2256 27.6924 68.123 27.1729 67.918C26.6579 67.7083 26.4004 67.4554 26.4004 67.1592C26.4004 67.0407 26.4482 66.9359 26.5439 66.8447C26.6396 66.749 26.7513 66.7012 26.8789 66.7012C26.929 66.7012 27.1956 66.79 27.6787 66.9678C28.1663 67.141 28.6175 67.2275 29.0322 67.2275C29.6429 67.2275 30.1374 67.0452 30.5156 66.6807C30.8984 66.3115 31.0898 65.8376 31.0898 65.2588C31.0898 64.6937 30.9098 64.2243 30.5498 63.8506C30.1898 63.4723 29.7363 63.2832 29.1895 63.2832C28.7793 63.2832 28.376 63.3857 27.9795 63.5908C27.5876 63.7959 27.3506 63.8984 27.2686 63.8984C27.1318 63.8984 27.0339 63.8483 26.9746 63.748C26.9199 63.6478 26.8926 63.4655 26.8926 63.2012V59.7969C26.8926 59.6465 26.9382 59.5394 27.0293 59.4756C27.125 59.4072 27.2891 59.373 27.5215 59.373H30.9805C31.1992 59.373 31.3633 59.4186 31.4727 59.5098C31.582 59.5964 31.6367 59.7285 31.6367 59.9062C31.6367 60.0749 31.5798 60.207 31.4658 60.3027C31.3519 60.3939 31.1901 60.4395 30.9805 60.4395H27.8838V62.6543Z" fill="white"/>
<path d="M597.818 68C597.577 68 597.397 67.9521 597.278 67.8564C597.164 67.7562 597.107 67.6035 597.107 67.3984C597.107 67.1022 597.545 66.5462 598.42 65.7305L598.618 65.5391C598.75 65.4115 598.942 65.2292 599.192 64.9922C600.769 63.5065 601.558 62.4242 601.558 61.7451C601.558 61.2575 601.419 60.8633 601.141 60.5625C600.863 60.2572 600.503 60.1045 600.061 60.1045C599.773 60.1045 599.498 60.1637 599.233 60.2822C598.974 60.4007 598.764 60.5602 598.604 60.7607C598.577 60.7972 598.534 60.8587 598.475 60.9453C598.306 61.2507 598.117 61.4033 597.907 61.4033C597.743 61.4033 597.627 61.3532 597.559 61.2529C597.49 61.1527 597.456 60.9613 597.456 60.6787C597.456 60.5146 597.472 60.3962 597.504 60.3232C597.536 60.2458 597.595 60.1637 597.682 60.0771C597.973 59.7946 598.333 59.5713 598.762 59.4072C599.195 59.2386 599.637 59.1543 600.088 59.1543C600.844 59.1543 601.476 59.3981 601.981 59.8857C602.492 60.3734 602.747 60.9727 602.747 61.6836C602.747 62.5768 601.972 63.764 600.423 65.2451C600.026 65.6143 599.723 65.9036 599.514 66.1133L598.673 66.9199H601.797C601.815 66.724 601.868 66.5758 601.954 66.4756C602.045 66.3708 602.166 66.3184 602.316 66.3184C602.467 66.3184 602.585 66.3685 602.672 66.4688C602.758 66.569 602.802 66.7057 602.802 66.8789C602.802 66.8926 602.799 66.9176 602.795 66.9541C602.79 66.986 602.788 67.0088 602.788 67.0225L602.733 67.5488C602.72 67.6901 602.679 67.8018 602.61 67.8838C602.542 67.9613 602.453 68 602.344 68H597.818ZM608.605 60.1318C608.081 60.1318 607.674 60.4417 607.382 61.0615C607.09 61.6813 606.944 62.5563 606.944 63.6865C606.944 64.8213 607.09 65.7008 607.382 66.3252C607.674 66.945 608.081 67.2549 608.605 67.2549C609.134 67.2549 609.544 66.945 609.836 66.3252C610.128 65.7008 610.273 64.8213 610.273 63.6865C610.273 62.5563 610.128 61.6813 609.836 61.0615C609.544 60.4417 609.134 60.1318 608.605 60.1318ZM608.605 68.2256C607.749 68.2256 607.067 67.8223 606.562 67.0156C606.06 66.2044 605.81 65.0947 605.81 63.6865C605.81 62.2829 606.06 61.1777 606.562 60.3711C607.067 59.5599 607.749 59.1543 608.605 59.1543C609.462 59.1543 610.144 59.5599 610.649 60.3711C611.155 61.1823 611.408 62.2874 611.408 63.6865C611.408 65.0856 611.155 66.193 610.649 67.0088C610.144 67.82 609.462 68.2256 608.605 68.2256ZM615.38 60.665C615.321 60.6742 615.275 60.681 615.243 60.6855C615.216 60.6901 615.191 60.6924 615.168 60.6924C615.027 60.6924 614.91 60.6536 614.819 60.5762C614.733 60.4941 614.689 60.387 614.689 60.2549C614.689 60.1455 614.728 60.0498 614.806 59.9678C614.883 59.8857 614.995 59.8242 615.141 59.7832L617.171 59.2363C617.221 59.2227 617.269 59.2135 617.314 59.209C617.365 59.1999 617.415 59.1953 617.465 59.1953C617.551 59.1953 617.62 59.2363 617.67 59.3184C617.72 59.3958 617.745 59.5029 617.745 59.6396V67.0361H618.839C619.244 67.0361 619.502 67.0703 619.611 67.1387C619.721 67.2025 619.775 67.3255 619.775 67.5078C619.775 67.6719 619.73 67.7949 619.639 67.877C619.548 67.959 619.411 68 619.229 68H615.141C614.958 68 614.822 67.959 614.73 67.877C614.639 67.7949 614.594 67.6719 614.594 67.5078C614.594 67.3255 614.648 67.2025 614.758 67.1387C614.867 67.0703 615.125 67.0361 615.53 67.0361H616.665V60.3574L615.38 60.665ZM625.524 67.8633C625.488 67.9727 625.454 68.0433 625.422 68.0752C625.39 68.1071 625.331 68.123 625.244 68.123H625.128H624.643C624.551 68.123 624.479 68.1048 624.424 68.0684C624.374 68.0319 624.349 67.9818 624.349 67.918C624.349 67.8815 624.351 67.8473 624.355 67.8154C624.365 67.779 624.376 67.738 624.39 67.6924L627.076 60.3984H623.604C623.59 60.6126 623.542 60.7721 623.46 60.877C623.378 60.9772 623.257 61.0273 623.098 61.0273C622.943 61.0273 622.826 60.9886 622.749 60.9111C622.676 60.8337 622.64 60.7129 622.64 60.5488C622.64 60.5033 622.64 60.4691 622.64 60.4463C622.644 60.4235 622.649 60.403 622.653 60.3848L622.722 59.7695C622.735 59.6419 622.781 59.5439 622.858 59.4756C622.94 59.4072 623.05 59.373 623.187 59.373H627.705C627.837 59.373 627.933 59.4027 627.992 59.4619C628.056 59.5166 628.088 59.6055 628.088 59.7285V59.9609C628.088 60.0156 628.076 60.0885 628.054 60.1797C628.031 60.2663 627.994 60.3848 627.944 60.5352L625.524 67.8633Z" fill="white"/>
</svg>
